<?xml version="1.0" encoding="UTF-8" standalone="no"?>
<!-- Generator: Adobe Illustrator 19.0.0, SVG Export Plug-In . SVG Version: 6.00 Build 0)  -->

<svg
   xmlns:dc="http://purl.org/dc/elements/1.1/"
   xmlns:cc="http://creativecommons.org/ns#"
   xmlns:rdf="http://www.w3.org/1999/02/22-rdf-syntax-ns#"
   xmlns:svg="http://www.w3.org/2000/svg"
   xmlns="http://www.w3.org/2000/svg"
   xmlns:xlink="http://www.w3.org/1999/xlink"
   xmlns:sodipodi="http://sodipodi.sourceforge.net/DTD/sodipodi-0.dtd"
   xmlns:inkscape="http://www.inkscape.org/namespaces/inkscape"
   version="1.1"
   id="Layer_1"
   x="0px"
   y="0px"
   viewBox="0 0 512 512"
   style="enable-background:new 0 0 512 512;"
   xml:space="preserve"
   width="64"
   height="64"
   sodipodi:docname="baby.svg"
   inkscape:version="0.92.4 (5da689c313, 2019-01-14)"><metadata
   id="metadata4864"><rdf:RDF><cc:Work
       rdf:about=""><dc:format>image/svg+xml</dc:format><dc:type
         rdf:resource="http://purl.org/dc/dcmitype/StillImage" /></cc:Work></rdf:RDF></metadata><defs
   id="defs4862"><linearGradient
     inkscape:collect="always"
     id="linearGradient4870"><stop
       style="stop-color:#19760c;stop-opacity:1"
       offset="0"
       id="stop4866" /><stop
       style="stop-color:#ffffff;stop-opacity:1"
       offset="1"
       id="stop4868" /></linearGradient><linearGradient
     inkscape:collect="always"
     xlink:href="#linearGradient4870"
     id="linearGradient4872"
     x1="260.74954"
     y1="346.7514"
     x2="261.22449"
     y2="533.8479"
     gradientUnits="userSpaceOnUse" /></defs><sodipodi:namedview
   pagecolor="#ffffff"
   bordercolor="#666666"
   borderopacity="1"
   objecttolerance="10"
   gridtolerance="10"
   guidetolerance="10"
   inkscape:pageopacity="0"
   inkscape:pageshadow="2"
   inkscape:window-width="1280"
   inkscape:window-height="738"
   id="namedview4860"
   showgrid="false"
   inkscape:zoom="8.421875"
   inkscape:cx="32"
   inkscape:cy="26.099564"
   inkscape:window-x="-8"
   inkscape:window-y="-8"
   inkscape:window-maximized="1"
   inkscape:current-layer="Layer_1" />
<g
   id="g4857"
   style="fill-opacity:1;fill:url(#linearGradient4872)">
	<path
   d="M469.155,213.774c-16.867-49.893-50.661-92.629-94.729-120.091c5.728-10.761,6.408-16.354,12.12-41.215   C362.077,57.879,355.17,60,340.686,60c-28.843,0-50.335-10.876-57.429-21.996C269.938,14.551,244.973,0,218.005,0   c-4.167,0-8.348,0.346-12.427,1.027c-27.034,4.515-47.157,24.307-52.516,51.653c-2.104,10.737-1.72,21.584,0.812,31.824   c-52.477,26.953-92.231,73.834-111.025,129.269C17.853,221.563,0,244.681,0,271c0,22.766,13.72,43.701,34.332,53.791   C52.957,432.125,146.728,512,256,512s203.043-79.875,221.668-187.209C498.28,314.701,512,293.766,512,271   C512,244.681,494.152,221.564,469.155,213.774z M182.502,58.449C185.869,41.275,198.609,30,218.005,30   c15.683,0,30.239,8.205,38.403,21.526C269.397,74.911,302.418,90,340.686,90c0.016,0,0.033,0,0.048,0   c-15.832,18.01-45.205,30-77.729,30c-22.441,0-43.999-5.672-60.703-15.971C184.594,93.111,179.598,73.27,182.502,58.449z M256,361   c-26.182,0-49.26,13.496-62.68,33.886c-7.954-9.293-12.32-20.2-12.32-31.448c0-17.334,9.086-33.375,75-33.375s75,16.041,75,33.375   c0,11.248-4.366,22.155-12.32,31.448C305.26,374.496,282.182,361,256,361z M211,436c0-24.813,20.187-45,45-45s45,20.187,45,45   c0,24.935-20.607,46-45,46S211,460.935,211,436z M459.769,299.703l-9.218,2.811l-1.275,9.552   c-9.819,73.554-60.084,133.364-126.279,157.906C328.217,459.518,331,447.953,331,436c0-3.583-0.269-7.102-0.757-10.552   C349.907,409.111,361,386.981,361,363.438c0-24.587-12.233-42.904-35.377-52.971c-16.318-7.098-38.441-10.404-69.623-10.404   s-53.304,3.306-69.623,10.404C163.233,320.534,151,338.851,151,363.438c0,23.543,11.093,45.674,30.757,62.011   C181.269,428.898,181,432.417,181,436c0,11.953,2.783,23.518,8.005,33.972C122.809,445.43,72.544,385.62,62.725,312.065   l-1.275-9.552l-9.218-2.811C39.142,295.711,30,283.909,30,271c0-14.507,11.723-27.55,26.688-29.695l9.533-1.366l2.726-9.237   c15.115-51.215,51.243-94.899,97.856-119.112C187.14,138.399,229.276,150,263.005,150c37.05,0,70.546-12.512,92.679-32.607   c41.774,25.004,73.33,65.74,87.369,113.311l2.726,9.236l9.533,1.366C470.277,243.45,482,256.493,482,271   C482,283.909,472.858,295.711,459.769,299.703z"
   id="path4851"
   style="fill-opacity:1;fill:url(#linearGradient4872)" />
	<path
   d="M346,211c-24.813,0-45,20.187-45,45v13h30v-13c0-8.271,6.729-15,15-15s15,6.729,15,15v13h30v-13   C391,231.187,370.813,211,346,211z"
   id="path4853"
   style="fill-opacity:1;fill:url(#linearGradient4872)" />
	<path
   d="M166,211.938c-24.813,0-45,20.187-45,45V271h30v-14.063c0-8.271,6.729-15,15-15s15,6.729,15,15V271h30v-14.063   C211,232.125,190.813,211.938,166,211.938z"
   id="path4855"
   style="fill-opacity:1;fill:url(#linearGradient4872)" />
</g>
</svg>