<?xml version="1.0" encoding="UTF-8" standalone="no"?>
<!-- Generator: Adobe Illustrator 19.0.0, SVG Export Plug-In . SVG Version: 6.00 Build 0)  -->

<svg
   xmlns:dc="http://purl.org/dc/elements/1.1/"
   xmlns:cc="http://creativecommons.org/ns#"
   xmlns:rdf="http://www.w3.org/1999/02/22-rdf-syntax-ns#"
   xmlns:svg="http://www.w3.org/2000/svg"
   xmlns="http://www.w3.org/2000/svg"
   xmlns:xlink="http://www.w3.org/1999/xlink"
   xmlns:sodipodi="http://sodipodi.sourceforge.net/DTD/sodipodi-0.dtd"
   xmlns:inkscape="http://www.inkscape.org/namespaces/inkscape"
   version="1.1"
   id="Capa_1"
   x="0px"
   y="0px"
   height="64"
   width="64"
   viewBox="0 0 512 512"
   style="enable-background:new 0 0 512 512;"
   xml:space="preserve"
   sodipodi:docname="truck.svg"
   inkscape:version="0.92.4 (5da689c313, 2019-01-14)"><metadata
   id="metadata190"><rdf:RDF><cc:Work
       rdf:about=""><dc:format>image/svg+xml</dc:format><dc:type
         rdf:resource="http://purl.org/dc/dcmitype/StillImage" /></cc:Work></rdf:RDF></metadata><defs
   id="defs188"><linearGradient
     id="linearGradient4778"
     inkscape:collect="always"><stop
       id="stop4774"
       offset="0"
       style="stop-color:#19760c;stop-opacity:1" /><stop
       id="stop4776"
       offset="1"
       style="stop-color:#ffffff;stop-opacity:0" /></linearGradient><linearGradient
     id="linearGradient4772"
     inkscape:collect="always"><stop
       id="stop4768"
       offset="0"
       style="stop-color:#19760c;stop-opacity:1" /><stop
       id="stop4770"
       offset="1"
       style="stop-color:#ffffff;stop-opacity:0" /></linearGradient><linearGradient
     id="linearGradient4766"
     inkscape:collect="always"><stop
       id="stop4762"
       offset="0"
       style="stop-color:#19760c;stop-opacity:1" /><stop
       id="stop4764"
       offset="1"
       style="stop-color:#ffffff;stop-opacity:1" /></linearGradient><linearGradient
     id="linearGradient4760"
     inkscape:collect="always"><stop
       id="stop4756"
       offset="0"
       style="stop-color:#19760c;stop-opacity:1" /><stop
       id="stop4758"
       offset="1"
       style="stop-color:#ffffff;stop-opacity:0" /></linearGradient><linearGradient
     id="linearGradient4754"
     inkscape:collect="always"><stop
       id="stop4750"
       offset="0"
       style="stop-color:#19760c;stop-opacity:1" /><stop
       id="stop4752"
       offset="1"
       style="stop-color:#ffffff;stop-opacity:0" /></linearGradient><linearGradient
     id="linearGradient4748"
     inkscape:collect="always"><stop
       id="stop4744"
       offset="0"
       style="stop-color:#19760c;stop-opacity:1" /><stop
       id="stop4746"
       offset="1"
       style="stop-color:#ffffff;stop-opacity:0" /></linearGradient><linearGradient
     id="linearGradient4742"
     inkscape:collect="always"><stop
       id="stop4738"
       offset="0"
       style="stop-color:#19760c;stop-opacity:1" /><stop
       id="stop4740"
       offset="1"
       style="stop-color:#ffffff;stop-opacity:0" /></linearGradient><linearGradient
     id="linearGradient4736"
     inkscape:collect="always"><stop
       id="stop4732"
       offset="0"
       style="stop-color:#19760c;stop-opacity:1" /><stop
       id="stop4734"
       offset="1"
       style="stop-color:#ffffff;stop-opacity:0" /></linearGradient><linearGradient
     inkscape:collect="always"
     id="linearGradient204"><stop
       style="stop-color:#19760c;stop-opacity:1"
       offset="0"
       id="stop200" /><stop
       style="stop-color:#ffffff;stop-opacity:0"
       offset="1"
       id="stop202" /></linearGradient><linearGradient
     inkscape:collect="always"
     xlink:href="#linearGradient204"
     id="linearGradient206"
     x1="259.32468"
     y1="318.21893"
     x2="258.37476"
     y2="434.10757"
     gradientUnits="userSpaceOnUse" /><linearGradient
     inkscape:collect="always"
     xlink:href="#linearGradient4778"
     id="linearGradient208"
     x1="259.32468"
     y1="318.21893"
     x2="258.37476"
     y2="434.10757"
     gradientUnits="userSpaceOnUse" /><linearGradient
     inkscape:collect="always"
     xlink:href="#linearGradient4772"
     id="linearGradient210"
     x1="259.32468"
     y1="318.21893"
     x2="258.37476"
     y2="434.10757"
     gradientUnits="userSpaceOnUse" /><linearGradient
     inkscape:collect="always"
     xlink:href="#linearGradient4766"
     id="linearGradient212"
     x1="259.32468"
     y1="318.21893"
     x2="258.37476"
     y2="434.10757"
     gradientUnits="userSpaceOnUse" /><linearGradient
     inkscape:collect="always"
     xlink:href="#linearGradient4760"
     id="linearGradient214"
     x1="259.32468"
     y1="318.21893"
     x2="258.37476"
     y2="434.10757"
     gradientUnits="userSpaceOnUse" /><linearGradient
     inkscape:collect="always"
     xlink:href="#linearGradient4754"
     id="linearGradient216"
     x1="259.32468"
     y1="318.21893"
     x2="258.37476"
     y2="434.10757"
     gradientUnits="userSpaceOnUse" /><linearGradient
     inkscape:collect="always"
     xlink:href="#linearGradient4748"
     id="linearGradient218"
     x1="259.32468"
     y1="318.21893"
     x2="258.37476"
     y2="434.10757"
     gradientUnits="userSpaceOnUse" /><linearGradient
     inkscape:collect="always"
     xlink:href="#linearGradient4742"
     id="linearGradient220"
     x1="259.32468"
     y1="318.21893"
     x2="258.37476"
     y2="434.10757"
     gradientUnits="userSpaceOnUse" /><linearGradient
     inkscape:collect="always"
     xlink:href="#linearGradient4736"
     id="linearGradient222"
     x1="259.32468"
     y1="318.21893"
     x2="258.37476"
     y2="434.10757"
     gradientUnits="userSpaceOnUse" /></defs><sodipodi:namedview
   pagecolor="#ffffff"
   bordercolor="#666666"
   borderopacity="1"
   objecttolerance="10"
   gridtolerance="10"
   guidetolerance="10"
   inkscape:pageopacity="0"
   inkscape:pageshadow="2"
   inkscape:window-width="1280"
   inkscape:window-height="738"
   id="namedview186"
   showgrid="false"
   inkscape:zoom="8.421875"
   inkscape:cx="33.543599"
   inkscape:cy="32"
   inkscape:window-x="-8"
   inkscape:window-y="-8"
   inkscape:window-maximized="1"
   inkscape:current-layer="Capa_1" />
<g
   id="g105"
   style="fill-opacity:1;fill:url(#linearGradient222)">
	<g
   id="g103"
   style="fill-opacity:1.0;fill:url(#linearGradient222)">
		<path
   d="M386.689,304.403c-35.587,0-64.538,28.951-64.538,64.538s28.951,64.538,64.538,64.538    c35.593,0,64.538-28.951,64.538-64.538S422.276,304.403,386.689,304.403z M386.689,401.21c-17.796,0-32.269-14.473-32.269-32.269    c0-17.796,14.473-32.269,32.269-32.269c17.796,0,32.269,14.473,32.269,32.269C418.958,386.738,404.485,401.21,386.689,401.21z"
   id="path101"
   style="fill-opacity:1.0;fill:url(#linearGradient222)" />
	</g>
</g>
<g
   id="g111"
   style="fill-opacity:1;fill:url(#linearGradient220)">
	<g
   id="g109"
   style="fill-opacity:1.0;fill:url(#linearGradient220)">
		<path
   d="M166.185,304.403c-35.587,0-64.538,28.951-64.538,64.538s28.951,64.538,64.538,64.538s64.538-28.951,64.538-64.538    S201.772,304.403,166.185,304.403z M166.185,401.21c-17.796,0-32.269-14.473-32.269-32.269c0-17.796,14.473-32.269,32.269-32.269    c17.791,0,32.269,14.473,32.269,32.269C198.454,386.738,183.981,401.21,166.185,401.21z"
   id="path107"
   style="fill-opacity:1.0;fill:url(#linearGradient220)" />
	</g>
</g>
<g
   id="g117"
   style="fill-opacity:1;fill:url(#linearGradient218)">
	<g
   id="g115"
   style="fill-opacity:1.0;fill:url(#linearGradient218)">
		<path
   d="M430.15,119.675c-2.743-5.448-8.32-8.885-14.419-8.885h-84.975v32.269h75.025l43.934,87.384l28.838-14.5L430.15,119.675z"
   id="path113"
   style="fill-opacity:1.0;fill:url(#linearGradient218)" />
	</g>
</g>
<g
   id="g123"
   style="fill-opacity:1;fill:url(#linearGradient216)">
	<g
   id="g121"
   style="fill-opacity:1.0;fill:url(#linearGradient216)">
		<rect
   x="216.202"
   y="353.345"
   width="122.084"
   height="32.269"
   id="rect119"
   style="fill-opacity:1.0;fill:url(#linearGradient216)" />
	</g>
</g>
<g
   id="g129"
   style="fill-opacity:1;fill:url(#linearGradient214)">
	<g
   id="g127"
   style="fill-opacity:1.0;fill:url(#linearGradient214)">
		<path
   d="M117.781,353.345H61.849c-8.912,0-16.134,7.223-16.134,16.134c0,8.912,7.223,16.134,16.134,16.134h55.933    c8.912,0,16.134-7.223,16.134-16.134C133.916,360.567,126.693,353.345,117.781,353.345z"
   id="path125"
   style="fill-opacity:1.0;fill:url(#linearGradient214)" />
	</g>
</g>
<g
   id="g135"
   style="fill-opacity:1;fill:url(#linearGradient212)">
	<g
   id="g133"
   style="fill-opacity:1.0;fill:url(#linearGradient212)">
		<path
   d="M508.612,254.709l-31.736-40.874c-3.049-3.937-7.755-6.239-12.741-6.239H346.891V94.655    c0-8.912-7.223-16.134-16.134-16.134H61.849c-8.912,0-16.134,7.223-16.134,16.134s7.223,16.134,16.134,16.134h252.773v112.941    c0,8.912,7.223,16.134,16.134,16.134h125.478l23.497,30.268v83.211h-44.639c-8.912,0-16.134,7.223-16.134,16.134    c0,8.912,7.223,16.134,16.134,16.134h60.773c8.912,0,16.134-7.223,16.135-16.134V264.605    C512,261.023,510.806,257.538,508.612,254.709z"
   id="path131"
   style="fill-opacity:1.0;fill:url(#linearGradient212)" />
	</g>
</g>
<g
   id="g141"
   style="fill-opacity:1;fill:url(#linearGradient210)">
	<g
   id="g139"
   style="fill-opacity:1.0;fill:url(#linearGradient210)">
		<path
   d="M116.706,271.597H42.487c-8.912,0-16.134,7.223-16.134,16.134c0,8.912,7.223,16.134,16.134,16.134h74.218    c8.912,0,16.134-7.223,16.134-16.134C132.84,278.82,125.617,271.597,116.706,271.597z"
   id="path137"
   style="fill-opacity:1.0;fill:url(#linearGradient210)" />
	</g>
</g>
<g
   id="g147"
   style="fill-opacity:1;fill:url(#linearGradient208)">
	<g
   id="g145"
   style="fill-opacity:1.0;fill:url(#linearGradient208)">
		<path
   d="M153.815,208.134H16.134C7.223,208.134,0,215.357,0,224.269s7.223,16.134,16.134,16.134h137.681    c8.912,0,16.134-7.223,16.134-16.134S162.727,208.134,153.815,208.134z"
   id="path143"
   style="fill-opacity:1.0;fill:url(#linearGradient208)" />
	</g>
</g>
<g
   id="g153"
   style="fill-opacity:1;fill:url(#linearGradient206)">
	<g
   id="g151"
   style="fill-opacity:1.0;fill:url(#linearGradient206)">
		<path
   d="M180.168,144.672H42.487c-8.912,0-16.134,7.223-16.134,16.134c0,8.912,7.223,16.134,16.134,16.134h137.681    c8.912,0,16.134-7.223,16.134-16.134C196.303,151.895,189.08,144.672,180.168,144.672z"
   id="path149"
   style="fill-opacity:1.0;fill:url(#linearGradient206)" />
	</g>
</g>
<g
   id="g155">
</g>
<g
   id="g157">
</g>
<g
   id="g159">
</g>
<g
   id="g161">
</g>
<g
   id="g163">
</g>
<g
   id="g165">
</g>
<g
   id="g167">
</g>
<g
   id="g169">
</g>
<g
   id="g171">
</g>
<g
   id="g173">
</g>
<g
   id="g175">
</g>
<g
   id="g177">
</g>
<g
   id="g179">
</g>
<g
   id="g181">
</g>
<g
   id="g183">
</g>
</svg>