<svg width="151" height="24" fill="none" xmlns="http://www.w3.org/2000/svg"><path d="M0 11.466h.546c.364 0 .686-.15.965-.448.28-.298.443-.806.492-1.523L2.64 0h10.832v12.541h-2.64V1.344H5.097l-.546 8.151c-.085 1.17-.419 2.019-1.001 2.544-.57.514-1.36.77-2.367.77-.315 0-.594-.029-.837-.089A2.046 2.046 0 010 12.63v-1.164zM18.661 1.344v4.12h6.645v1.344h-6.645v4.39h8.465v1.343H16.023V0h11.105v1.344H18.66zm10.103 9.853c.364 0 .698-.167 1.002-.501.315-.335.497-.795.546-1.38L31.04 0h10.194v11.197h1.548v4.21h-2.185l-.364-2.866h-9.83l-.364 2.867h-2.185v-4.21h.91zm4.096-1.88c-.024.31-.103.584-.236.823a2.61 2.61 0 01-.437.592 2.453 2.453 0 01-.601.465h7.009V1.344h-5.097l-.638 7.972zm28.759 3.224V2.33h-.182L54.61 12.541h-3.459V0h2.64v10.212h.182L60.8 0h3.459v12.541h-2.64zM85.921 0v12.541h-2.64V1.344h-7.463V12.54h-2.64V0h12.743zm1.636 11.466h.546c.364 0 .686-.15.965-.448.28-.298.443-.806.492-1.523L90.197 0h10.832v12.541h-2.64V1.344h-5.735l-.546 8.151c-.085 1.17-.418 2.019-1.001 2.544-.57.514-1.36.77-2.367.77-.315 0-.594-.029-.837-.089a2.047 2.047 0 01-.346-.09v-1.164zm19.39-3.314h5.643l-2.731-6.63h-.182l-2.73 6.63zM111.862 0l5.188 12.541h-2.621l-1.202-3.046h-6.918l-1.201 3.046h-2.622L107.675 0h4.187zm15.298 10.75h.182L132.075 0h3.914v12.541h-2.64V2.508h-.182l-4.369 10.033h-3.095l-4.369-10.033h-.182v10.033h-2.64V0h3.914l4.734 10.75zm10.824 1.791l3.004-4.228c-.91-.346-1.608-.848-2.093-1.505-.486-.657-.729-1.463-.729-2.419 0-.692.134-1.307.401-1.845.267-.55.649-1.01 1.147-1.38.497-.382 1.104-.668 1.82-.86.728-.202 1.548-.304 2.458-.304h6.554v12.541h-2.64V8.78h-4.242l-2.676 3.762h-3.004zm6.008-11.197c-.959 0-1.699.25-2.221.752-.522.49-.783 1.254-.783 2.293 0 1.04.261 1.81.783 2.312.522.49 1.262.734 2.221.734h3.914V1.344h-3.914zM38.18 20.973c.353 0 .663.035.928.103.266.07.489.168.667.296a1.258 1.258 0 01.537 1.046 1.245 1.245 0 01-.536 1.046 1.987 1.987 0 01-.668.295 3.727 3.727 0 01-.928.104h-2.544v-4.816h4.125v.516h-3.128v1.41h1.547zm-1.547.516v1.857h1.547c.33 0 .59-.08.777-.24.193-.165.289-.395.289-.688 0-.294-.096-.52-.289-.681-.188-.165-.447-.248-.777-.248h-1.547zm10.624 2.374h-.997v-4.816h.997v4.816zm-3.816-3.027c.706 0 1.237.137 1.595.412.358.27.536.638.536 1.101 0 .463-.178.832-.536 1.108-.358.27-.89.405-1.595.405h-2.406v-4.815h.997v1.788h1.409zm-1.41.515v1.995h1.41c.33 0 .589-.082.777-.247.192-.17.289-.42.289-.75s-.097-.578-.29-.743c-.187-.17-.446-.255-.776-.255h-1.41zm10.485-1.788H50.66v4.3h-.997v-4.3h-1.857v-.516h4.71v.516zm2.68-.173a1.75 1.75 0 00-.66.125 1.426 1.426 0 00-.53.378 1.9 1.9 0 00-.364.647c-.087.257-.13.562-.13.915s.043.66.13.922c.091.256.213.47.364.64.151.169.328.295.53.378.206.082.426.123.66.123.233 0 .451-.04.653-.123.206-.083.385-.209.536-.379.151-.17.27-.383.358-.64.091-.26.137-.568.137-.921 0-.353-.046-.658-.138-.915a1.824 1.824 0 00-.357-.647 1.413 1.413 0 00-.536-.378 1.706 1.706 0 00-.653-.124zm0-.48c.412 0 .786.054 1.12.164.34.11.628.273.867.489.242.215.43.481.563.798.133.316.2.68.2 1.094 0 .412-.067.777-.2 1.094a2.17 2.17 0 01-.563.797 2.357 2.357 0 01-.867.489c-.334.11-.708.165-1.12.165a3.64 3.64 0 01-1.128-.165 2.41 2.41 0 01-.873-.489 2.214 2.214 0 01-.557-.797 2.893 2.893 0 01-.192-1.094c0-.413.064-.778.192-1.094.133-.317.319-.583.557-.798a2.42 2.42 0 01.873-.489c.34-.11.715-.165 1.128-.165zm3.577.137h2.338c.353 0 .658.032.915.096.26.06.476.147.646.261.17.11.295.244.378.4.082.155.124.328.124.516 0 .243-.07.454-.207.632-.137.18-.343.312-.618.4.343.068.612.203.804.405.197.198.296.452.296.764 0 .413-.172.74-.516.984-.34.238-.878.358-1.616.358h-2.544v-4.816zm.997 2.614v1.685h1.547c.344 0 .608-.068.791-.206.183-.137.275-.344.275-.619 0-.294-.092-.51-.275-.647-.183-.142-.447-.213-.79-.213H59.77zm1.341-.516c.665 0 .997-.275.997-.825 0-.244-.085-.43-.254-.558-.165-.133-.413-.2-.743-.2h-1.34v1.583h1.34zm4.299 1.032h2.131l-1.03-2.546h-.07l-1.031 2.546zm1.856-3.13l1.96 4.816h-.99l-.454-1.17h-2.613l-.453 1.17h-.99l1.959-4.816h1.581zm2.306 4.816l1.134-1.624c-.344-.133-.607-.326-.79-.578-.184-.252-.275-.562-.275-.929 0-.266.05-.502.15-.708a1.44 1.44 0 01.434-.53 1.92 1.92 0 01.687-.33c.275-.078.585-.117.929-.117h2.475v4.816h-.997v-1.445h-1.602l-1.01 1.445h-1.135zm2.269-4.3c-.362 0-.642.096-.84.289-.196.188-.295.481-.295.88 0 .4.099.695.296.888.197.188.477.282.839.282h1.478v-2.34H71.84zm10.137 0H80.12v4.3h-.997v-4.3h-1.856v-.516h4.71v.516zm1.547 0v1.582h2.51v.516h-2.51v1.685h3.197v.517h-4.194v-4.816h4.194v.516h-3.197zm6.614 1.83l2.049 2.47h-1.169L89.554 22.1l-1.457 1.762h-1.169l2.042-2.47-1.939-2.346h1.17l1.354 1.644 1.36-1.644h1.17l-1.946 2.346zm7.341-2.346v4.816h-.998v-2.099h-2.818v2.099h-.997v-4.816h.997v2.201h2.819v-2.201h.996zm4.914 4.816V19.94h-.069l-2.578 3.922h-1.306v-4.816h.997v3.921h.069l2.578-3.921h1.306v4.816h-.997zm5.056-2.443l1.822 2.442h-1.135l-1.581-2.132h-1.203v2.133h-.997v-4.816h.997v2.167h1.134l1.582-2.167h1.1l-1.719 2.373zm3.643.757h2.132l-1.032-2.546h-.068l-1.032 2.546zm1.857-3.13l1.959 4.816h-.99l-.454-1.17h-2.612l-.454 1.17h-.99l1.959-4.816h1.582z" fill="#000"/></svg>