<svg width="6" height="8" fill="none" xmlns="http://www.w3.org/2000/svg"><path d="M5.745 3.62a3.107 3.107 0 00-.706-1.03l-.248-.238a.068.068 0 00-.063-.017.068.068 0 00-.03.017.073.073 0 00-.018.03l-.111.333a1.915 1.915 0 01-.376.633.052.052 0 01-.035.018.045.045 0 01-.036-.014.054.054 0 01-.017-.043c.031-.538-.122-1.145-.458-1.806A3.128 3.128 0 002.5.227L2.149.01c-.046-.029-.105.009-.103.065l.02.43c.012.293-.02.552-.097.767a2.583 2.583 0 01-.806 1.141C.804 2.703.512 3.075.31 3.5a3.235 3.235 0 00-.073 2.595c.151.371.37.708.644.992.276.286.596.512.953.668a2.892 2.892 0 002.334 0 3.086 3.086 0 001.597-1.659 3.253 3.253 0 00-.02-2.476z" fill="#FF4D15"/></svg>