<svg width="47" height="31" fill="none" xmlns="http://www.w3.org/2000/svg"><path d="M0 0v31h47V0H0zm1.469 29.524V1.476H35.25v28.048H1.469zm44.062 0H36.72V1.476h8.812v28.048z" fill="#000"/><path d="M41.125 8.857a2.93 2.93 0 002.714-1.822 2.967 2.967 0 00-.637-3.218 2.933 2.933 0 00-3.201-.64 2.94 2.94 0 00-1.318 1.088 2.963 2.963 0 00.365 3.727 2.93 2.93 0 002.077.865zm0-4.428a1.463 1.463 0 011.357.91 1.483 1.483 0 01-.318 1.61 1.467 1.467 0 01-2.508-1.044c0-.392.155-.767.43-1.044.276-.277.65-.432 1.039-.432zm0 13.285c.811 0 1.469-.66 1.469-1.476 0-.815-.658-1.476-1.469-1.476s-1.469.66-1.469 1.476c0 .815.658 1.476 1.469 1.476zm0 5.905c.811 0 1.469-.66 1.469-1.476 0-.815-.658-1.476-1.469-1.476s-1.469.66-1.469 1.476c0 .815.658 1.476 1.469 1.476zM28.64 4.429H8.079a3.66 3.66 0 00-2.596 1.08 3.7 3.7 0 00-1.076 2.61v14.762a3.706 3.706 0 001.076 2.61 3.671 3.671 0 002.596 1.08h20.563a3.655 3.655 0 002.596-1.08 3.69 3.69 0 001.076-2.61V8.119a3.7 3.7 0 00-1.076-2.61 3.662 3.662 0 00-2.596-1.08zm2.204 18.452a2.22 2.22 0 01-.646 1.566 2.198 2.198 0 01-1.557.648H8.078a2.198 2.198 0 01-1.558-.648 2.22 2.22 0 01-.645-1.566V8.119c0-.587.232-1.15.645-1.566a2.198 2.198 0 011.558-.648h20.563a2.2 2.2 0 011.558.648c.413.416.645.979.645 1.566v14.762z" fill="#000"/></svg>