<svg width="207" height="33" fill="none" xmlns="http://www.w3.org/2000/svg"><path d="M0 15.766h.75c.502 0 .944-.205 1.328-.616.383-.41.609-1.109.675-2.094L3.63 0h14.893v17.244h-3.63V1.848H7.01l-.751 11.208c-.117 1.61-.576 2.776-1.377 3.498-.784.706-1.869 1.06-3.254 1.06-.434 0-.818-.042-1.151-.124A2.823 2.823 0 010 17.367v-1.601zM25.66 1.848v5.665h9.136v1.848h-9.137v6.035H37.3v1.848H22.03V0H37.3v1.848H25.66zm13.89 13.548c.501 0 .96-.23 1.378-.69.433-.46.684-1.091.75-1.896L42.68 0h14.017v15.396h2.128v5.79h-3.004l-.5-3.942H41.804l-.501 3.942h-3.004v-5.79h1.252zm5.633-2.586a2.732 2.732 0 01-.325 1.133c-.184.329-.384.6-.601.813-.25.263-.526.476-.826.64h9.637V1.848h-7.009l-.876 10.962zm39.543 4.434V3.202h-.25l-9.387 14.042h-4.756V0h3.63v14.041h.25L83.599 0h4.756v17.244h-3.63zM118.142 0v17.244h-3.63V1.848h-10.263v15.396h-3.629V0h17.522zm2.249 15.766h.751c.5 0 .943-.205 1.327-.616.383-.41.609-1.109.675-2.094L124.02 0h14.894v17.244h-3.629V1.848H127.4l-.751 11.208c-.117 1.61-.576 2.776-1.377 3.498-.784.706-1.869 1.06-3.254 1.06-.434 0-.818-.042-1.151-.124a2.805 2.805 0 01-.476-.123v-1.601zm26.66-4.557h7.76l-3.755-9.115h-.25l-3.755 9.115zM153.81 0l7.134 17.244h-3.605l-1.652-4.188h-9.512l-1.652 4.188h-3.604L148.053 0h5.757zm21.034 14.78h.251L181.603 0h5.382v17.244h-3.63V3.449h-.25l-6.008 13.795h-4.255l-6.008-13.795h-.25v13.795h-3.63V0h5.382l6.508 14.78zm14.884 2.464l4.13-5.814c-1.251-.476-2.211-1.166-2.878-2.069-.668-.903-1.001-2.012-1.001-3.326 0-.952.183-1.798.55-2.537a5.13 5.13 0 011.577-1.897c.684-.525 1.519-.92 2.503-1.182 1.002-.28 2.128-.419 3.38-.419H207v17.244h-3.63v-5.173h-5.832l-3.68 5.173h-4.13zm8.261-15.396c-1.319 0-2.337.344-3.054 1.034-.718.674-1.077 1.725-1.077 3.153 0 1.43.359 2.488 1.077 3.178.717.674 1.735 1.01 3.054 1.01h5.381V1.848h-5.381zM52.498 28.838c.485 0 .91.047 1.276.142.366.094.671.23.917.407.246.176.429.387.548.633a1.7 1.7 0 01.19.804 1.713 1.713 0 01-.737 1.438 2.731 2.731 0 01-.918.407 5.125 5.125 0 01-1.276.142H49v-6.622h5.672v.71h-4.301v1.939h2.127zm-2.127.71V32.1h2.127c.454 0 .81-.11 1.068-.33.265-.228.397-.543.397-.947 0-.403-.132-.715-.397-.936-.258-.227-.614-.34-1.068-.34H50.37zm14.607 3.262h-1.37v-6.62h1.37v6.62zm-5.247-4.161c.97 0 1.702.189 2.194.567.491.372.737.877.737 1.514s-.246 1.144-.737 1.523c-.492.372-1.223.558-2.194.558h-3.309v-6.622h1.371v2.46h1.938zm-1.938.71V32.1h1.938c.454 0 .81-.113 1.069-.34.264-.233.397-.577.397-1.031 0-.454-.133-.795-.398-1.022-.258-.233-.614-.35-1.068-.35h-1.938zm14.417-2.46h-2.553v5.912h-1.371v-5.912h-2.552v-.71h6.475v.71zm3.684-.237a2.42 2.42 0 00-.908.17c-.277.114-.52.287-.728.52-.207.234-.374.53-.5.89-.12.353-.18.772-.18 1.258s.06.908.18 1.268c.126.353.293.646.5.88.208.233.451.406.728.52.284.113.587.17.908.17.321 0 .62-.057.898-.17.284-.114.53-.287.737-.52a2.52 2.52 0 00.492-.88c.126-.36.189-.782.189-1.268s-.063-.905-.189-1.258a2.509 2.509 0 00-.492-.89 1.946 1.946 0 00-.737-.52 2.348 2.348 0 00-.898-.17zm0-.662c.567 0 1.08.076 1.54.227.467.151.864.375 1.192.672.334.296.592.662.775 1.097.183.435.274.936.274 1.504s-.091 1.069-.274 1.504a2.992 2.992 0 01-.775 1.097c-.328.297-.725.52-1.191.672-.46.151-.974.227-1.541.227a5.005 5.005 0 01-1.55-.227 3.337 3.337 0 01-1.201-.672 3.047 3.047 0 01-.766-1.097c-.176-.435-.264-.936-.264-1.504s.088-1.069.264-1.504c.183-.435.438-.801.766-1.097.334-.297.734-.52 1.2-.672a5.005 5.005 0 011.55-.227zm4.92.19h3.214c.485 0 .904.043 1.257.132.36.082.656.201.889.36.233.15.406.333.52.548.113.214.17.45.17.71 0 .333-.095.623-.284.87-.189.245-.472.428-.85.548.472.095.84.28 1.105.558.271.271.407.621.407 1.05 0 .568-.236 1.019-.71 1.353-.465.328-1.206.492-2.22.492h-3.498v-6.622zm1.37 3.594V32.1h2.127c.473 0 .835-.094 1.087-.283.252-.19.379-.473.379-.852 0-.403-.127-.7-.379-.889-.252-.196-.614-.293-1.087-.293h-2.127zm1.844-.71c.913 0 1.37-.378 1.37-1.135 0-.334-.116-.59-.35-.766-.226-.183-.567-.274-1.02-.274h-1.844v2.175h1.844zm5.911 1.419h2.93l-1.418-3.5h-.094l-1.418 3.5zm2.552-4.304l2.695 6.622h-1.362l-.624-1.608h-3.592l-.624 1.608h-1.361l2.694-6.622h2.174zm3.17 6.621l1.56-2.232c-.473-.183-.835-.447-1.087-.794-.252-.347-.378-.773-.378-1.277 0-.366.069-.69.208-.975.138-.29.337-.532.595-.728.259-.202.574-.353.946-.454.378-.107.803-.16 1.276-.16h3.403v6.62h-1.371v-1.986h-2.202l-1.39 1.987h-1.56zm3.12-5.911c-.498 0-.883.132-1.154.397-.27.259-.406.662-.406 1.21 0 .55.135.956.406 1.221.272.259.656.388 1.154.388h2.032v-3.216h-2.032zm13.938 0h-2.552v5.912h-1.371v-5.912h-2.552v-.71h6.475v.71zm2.128 0v2.175h3.451v.71h-3.451V32.1h4.396v.71h-5.767v-6.622h5.767v.71h-4.396zm9.094 2.516l2.817 3.396h-1.607l-2.014-2.422-2.004 2.422h-1.607l2.808-3.396-2.666-3.226h1.607l1.862 2.261 1.872-2.26h1.607l-2.675 3.225zm10.093-3.225v6.62h-1.371v-2.884h-3.876v2.885h-1.37v-6.622h1.37v3.027h3.876V26.19h1.371zm6.758 6.62v-5.39h-.095l-3.545 5.392h-1.796V26.19h1.371v5.392h.094l3.546-5.392h1.796v6.622h-1.371zm6.952-3.357l2.505 3.358h-1.56l-2.174-2.933h-1.655v2.933h-1.37v-6.622h1.37v2.98h1.56l2.174-2.98h1.513l-2.363 3.264zm5.009 1.04h2.931l-1.418-3.5h-.095l-1.418 3.5zm2.553-4.304L158 32.811h-1.361l-.624-1.608h-3.593l-.624 1.608h-1.361l2.694-6.622h2.175z" fill="#fff"/></svg>