<svg xmlns="http://www.w3.org/2000/svg" width="172" height="172" viewBox="0 0 172 172"><defs><clipPath id="a54wa"><path fill="#fff" d="M86 0c47.496 0 86 38.503 86 86 0 47.496-38.504 86-86 86S0 133.496 0 86C0 38.503 38.503 0 86 0z"/></clipPath></defs><g><g><path fill="none" stroke="#fff" stroke-miterlimit="50" stroke-width="12" d="M86 0c47.496 0 86 38.503 86 86 0 47.496-38.504 86-86 86S0 133.496 0 86C0 38.503 38.503 0 86 0z" clip-path="url(&quot;#a54wa&quot;)"/></g><g><path fill="#fff" d="M116.708 77.466l-.03.021h-.001l-25.97 17.98-.001-.003a2.981 2.981 0 0 1-3.37.031v.001l-.01-.007c-.002 0-.004-.002-.005-.003L73.9 86.539 60 94.716V107h55a3 3 0 0 1 0 6H57a3 3 0 0 1-3-3V62a3 3 0 1 1 6 0v25.755l12.479-7.34.006.01A2.97 2.97 0 0 1 74 80c.616 0 1.187.187 1.664.505v-.001l.01.007.005.003 13.29 8.86 24.323-16.84.002.002A2.981 2.981 0 0 1 115 72a3 3 0 0 1 3 3 2.994 2.994 0 0 1-1.294 2.464z"/></g></g></svg>