<svg xmlns="http://www.w3.org/2000/svg" width="172" height="172" viewBox="0 0 172 172"><defs><clipPath id="ir0la"><path fill="#fff" d="M86 0c47.496 0 86 38.503 86 86 0 47.496-38.504 86-86 86S0 133.496 0 86C0 38.503 38.503 0 86 0z"/></clipPath></defs><g><g><path fill="none" stroke="#fff" stroke-miterlimit="50" stroke-width="12" d="M86 0c47.496 0 86 38.503 86 86 0 47.496-38.504 86-86 86S0 133.496 0 86C0 38.503 38.503 0 86 0z" clip-path="url(&quot;#ir0la&quot;)"/></g><g><path fill="#fff" d="M103 103a3 3 0 0 1 0-6 9 9 0 0 0 9-9 8.969 8.969 0 0 0-3.674-7.243 8.967 8.967 0 0 0-1.285-.79 8.976 8.976 0 0 0-.728-.33c-.083-.032-.168-.061-.252-.092a8.85 8.85 0 0 0-.519-.175c-.116-.034-.236-.062-.354-.091-.152-.038-.303-.079-.457-.109-.162-.031-.328-.052-.493-.075-.119-.016-.236-.039-.356-.05A9.089 9.089 0 0 0 103 79c-.094 0-.185.011-.278.014a16.823 16.823 0 0 0-.342-1.512c-.034-.12-.079-.237-.114-.357a16.816 16.816 0 0 0-.364-1.111c-.041-.11-.092-.215-.135-.324-.148-.37-.3-.737-.473-1.093-.042-.086-.09-.168-.133-.253-.189-.373-.384-.741-.599-1.097C97.595 68.317 92.192 65 86 65s-11.595 3.318-14.562 8.267c-.215.356-.41.724-.599 1.097-.043.085-.091.167-.133.253-.172.356-.325.723-.473 1.093-.043.109-.094.214-.135.324-.137.363-.252.736-.364 1.111-.036.12-.08.236-.114.357a16.78 16.78 0 0 0-.342 1.512C69.185 79.011 69.094 79 69 79c-.298 0-.592.017-.882.045-.12.011-.237.034-.356.05-.165.023-.33.044-.493.075-.154.03-.305.07-.457.109-.118.03-.238.057-.354.091a8.837 8.837 0 0 0-.519.175c-.084.031-.169.06-.252.092-.19.077-.377.16-.561.249l-.167.08c-.2.102-.397.21-.588.326l-.096.059a8.99 8.99 0 0 0-1.238.92A8.968 8.968 0 0 0 60 88a9 9 0 0 0 9 9 3 3 0 0 1 0 6c-8.284 0-15-6.716-15-15 0-6.758 4.47-12.468 10.613-14.345C67.952 65.085 76.248 59 86 59s18.048 6.086 21.387 14.655C113.53 75.532 118 81.242 118 88c0 8.284-6.716 15-15 15zm-28.23-7.007l.006-.006a.09.09 0 0 0 .006-.007l8.988-9.987.008.007c.55-.61 1.337-1 2.222-1s1.673.39 2.222 1l.008-.007 8.99 9.989.002.002.008.01c.418.464.693 1.06.756 1.719v.006A3 3 0 0 1 95 101c-.033 0-.065-.002-.097-.003l-.06-.001-.063-.005-.1-.008-.034-.005a2.789 2.789 0 0 1-.132-.018h-.002a2.994 2.994 0 0 1-1.742-.953L89 95.817V111a3 3 0 0 1-6 0V95.818l-3.77 4.189a2.995 2.995 0 0 1-1.874.971l-.036.005-.098.008-.065.005-.057.001c-.034.001-.066.003-.1.003a3 3 0 0 1-2.23-5.007z"/></g></g></svg>