<svg xmlns="http://www.w3.org/2000/svg" width="172" height="172" viewBox="0 0 172 172"><defs><clipPath id="h6gma"><path fill="#fff" d="M86 0c47.496 0 86 38.503 86 86 0 47.496-38.504 86-86 86-47.497 0-86-38.504-86-86C0 38.503 38.503 0 86 0z"/></clipPath></defs><g><g><path fill="none" stroke="#fff" stroke-miterlimit="50" stroke-width="12" d="M86 0c47.496 0 86 38.503 86 86 0 47.496-38.504 86-86 86-47.497 0-86-38.504-86-86C0 38.503 38.503 0 86 0z" clip-path="url(&quot;#h6gma&quot;)"/></g><g><path fill="#fff" d="M102.101 55.04c-5.398 0-9.725 1.933-13.542 5.738a.045.045 0 0 0-.006.006l-.002.002-2.169 2.722-2.17-2.559-.006-.007c-3.818-3.806-8.145-5.902-13.543-5.902a20.108 20.108 0 0 0-14.29 5.901c-3.817 3.806-5.92 8.865-5.92 14.247 0 5.38 2.1 10.436 5.913 14.242l26.827 26.97a4.498 4.498 0 0 0 6.378 0l26.825-26.969c3.814-3.805 5.915-8.863 5.915-14.242 0-5.382-2.102-10.442-5.92-14.248a20.11 20.11 0 0 0-14.29-5.901z"/></g></g></svg>