<svg width="15" height="19" fill="none" xmlns="http://www.w3.org/2000/svg"><path d="M14.996 16.424L13.923 4.173a.52.52 0 00-.513-.478h-2.208C11.172 1.651 9.524 0 7.5 0S3.829 1.651 3.798 3.695H1.59a.517.517 0 00-.513.478L.004 16.423c0 .017-.004.032-.004.048C0 17.865 1.26 19 2.813 19h9.374C13.739 19 15 17.865 15 16.47c0-.015 0-.03-.004-.046zM7.5 1.049c1.452 0 2.637 1.181 2.667 2.646H4.833C4.863 2.23 6.048 1.05 7.5 1.05zm4.687 16.902H2.813c-.973 0-1.763-.653-1.778-1.457L2.062 4.748h1.732v1.593c0 .292.23.525.517.525a.519.519 0 00.518-.525V4.748h5.338v1.593c0 .292.23.525.518.525a.519.519 0 00.517-.525V4.748h1.732l1.031 11.746c-.015.804-.808 1.457-1.778 1.457z" fill="#000"/></svg>