<svg width="32" height="32" fill="none" xmlns="http://www.w3.org/2000/svg"><circle cx="16" cy="16" r="16" fill="#FF4D15"/><path d="M20.43 12.2l-7 9.8H11.4l7-9.8h2.03zm-1.47 5.46c.345 0 .667.051.966.154.308.093.57.238.784.434.215.187.383.425.504.714.13.29.196.625.196 1.008s-.065.719-.196 1.008c-.121.29-.29.532-.504.728a2.108 2.108 0 01-.784.42c-.299.103-.62.154-.966.154-.355 0-.681-.051-.98-.154a2.12 2.12 0 01-.77-.42 2.194 2.194 0 01-.518-.728 2.591 2.591 0 01-.182-1.008c0-.383.06-.719.182-1.008.13-.29.303-.527.518-.714.215-.196.471-.34.77-.434.299-.103.625-.154.98-.154zm0 3.85c.243 0 .453-.117.63-.35.187-.233.28-.63.28-1.19 0-.56-.093-.957-.28-1.19-.177-.233-.387-.35-.63-.35s-.457.117-.644.35c-.177.233-.266.63-.266 1.19 0 .56.089.957.266 1.19.187.233.401.35.644.35zm-6.09-9.59c.345 0 .667.051.966.154.308.093.57.238.784.434.215.187.383.425.504.714.13.29.196.625.196 1.008s-.065.719-.196 1.008c-.121.29-.29.532-.504.728a2.275 2.275 0 01-.784.434c-.299.093-.62.14-.966.14-.355 0-.681-.047-.98-.14a2.296 2.296 0 01-.77-.434 2.194 2.194 0 01-.518-.728 2.591 2.591 0 01-.182-1.008c0-.383.06-.719.182-1.008.13-.29.303-.527.518-.714.215-.196.471-.34.77-.434.299-.103.625-.154.98-.154zm0 3.85c.243 0 .453-.117.63-.35.187-.233.28-.63.28-1.19 0-.56-.093-.957-.28-1.19-.177-.233-.387-.35-.63-.35s-.457.117-.644.35c-.177.233-.266.63-.266 1.19 0 .56.089.957.266 1.19.187.233.401.35.644.35z" fill="#fff"/></svg>