<?xml version="1.0" encoding="UTF-8" standalone="no"?>
<!DOCTYPE svg PUBLIC "-//W3C//DTD SVG 1.1//EN" "http://www.w3.org/Graphics/SVG/1.1/DTD/svg11.dtd">
<svg version="1.1" xmlns="http://www.w3.org/2000/svg" xmlns:xlink="http://www.w3.org/1999/xlink" preserveAspectRatio="xMidYMid meet" viewBox="0 0 37 37" width="37" height="37"><defs><path d="M0 37L0 0L37 0L37 37L0 37ZM16.04 15.92L15.58 15.93L15.12 15.93L14.66 15.93L14.19 15.94L13.73 15.95L13.27 15.96L12.8 15.97L12.34 15.98L11.88 15.98L11.41 15.99L10.95 16L10.49 16.01L10.03 16.01L9.57 16.02L9.11 16.02L9.11 16.32L9.11 16.63L9.1 16.95L9.1 17.29L9.09 17.63L9.09 17.98L9.08 18.32L9.08 18.68L9.07 19.03L9.06 19.37L9.06 19.71L9.05 20.05L9.05 20.37L9.05 20.68L9.05 20.98L16 20.98L16 21.44L16.01 21.9L16.01 22.37L16.01 22.83L16.01 23.3L16.02 23.76L16.02 24.23L16.02 24.7L16.02 25.16L16.03 25.63L16.03 26.1L16.03 26.56L16.03 27.02L16.04 27.49L16.04 27.95L16.33 27.94L16.65 27.94L16.97 27.94L17.3 27.93L17.64 27.93L17.99 27.92L18.34 27.92L18.69 27.91L19.04 27.9L19.39 27.9L19.73 27.89L20.06 27.89L20.38 27.89L20.7 27.88L21 27.88L21 27.42L20.99 26.96L20.99 26.5L20.99 26.03L20.99 25.57L20.98 25.1L20.98 24.63L20.98 24.17L20.98 23.7L20.97 23.23L20.97 22.77L20.97 22.3L20.97 21.84L20.97 21.38L20.96 20.92L27.95 20.92L27.95 20.62L27.95 20.31L27.96 19.99L27.96 19.66L27.96 19.32L27.96 18.97L27.97 18.63L27.97 18.28L27.97 17.93L27.98 17.59L27.98 17.25L27.98 16.92L27.98 16.6L27.98 16.29L27.98 15.99L27.52 15.99L27.06 15.99L26.6 15.99L26.13 15.99L25.66 15.99L25.18 16L24.71 16L24.24 16L23.76 16.01L23.29 16.01L22.82 16.01L22.35 16.01L21.89 16.02L21.42 16.02L20.96 16.02L20.96 15.56L20.96 15.09L20.96 14.63L20.96 14.16L20.96 13.69L20.95 13.22L20.95 12.74L20.95 12.27L20.94 11.8L20.94 11.32L20.94 10.85L20.94 10.38L20.93 9.92L20.93 9.45L20.93 8.99L16.04 8.99L16.04 15.92Z" id="aCFb2gyZl"></path></defs><g><g><g><use xlink:href="#aCFb2gyZl" opacity="1" fill="#fefefe" fill-opacity="1"></use><g><use xlink:href="#aCFb2gyZl" opacity="1" fill-opacity="0" stroke="#000000" stroke-width="1" stroke-opacity="0"></use></g></g></g></g></svg>