<svg width="69" height="62" fill="none" xmlns="http://www.w3.org/2000/svg"><path d="M37.731 23.279h0a1.41 1.41 0 012.818 0m-2.818 0h2.668m-2.668 0a5.536 5.536 0 003.96 5.299v1.146a1.41 1.41 0 002.819 0v-1.062a5.526 5.526 0 004.245-5.952h0m-11.024.569l11.024-.57m-8.206.57h-.15m.15 0s0 0 0 0h-.15m.15 0a2.712 2.712 0 002.38 2.687m-2.53-2.688a2.862 2.862 0 002.532 2.839m-.002-.151c-.007 0-.013.002-.02.003l.022.148m-.002-.151l.02.002-.018.149m-.002-.151c.15-.02.3-.014.446.015a2.707 2.707 0 002.59-2.754h0a2.707 2.707 0 00-2.707-2.657l-.327 5.547m5.824-3.407a5.527 5.527 0 00-5.497-4.958h0m5.497 4.958l-5.497-4.958m0 0a2.709 2.709 0 112.709-2.709 1.41 1.41 0 002.818 0h0m-5.527 2.71l5.527-2.71m0 0A5.537 5.537 0 0044.51 9.66m4.275 5.383L44.51 9.66m0 0V8.634a1.41 1.41 0 00-2.819 0v1.11a5.527 5.527 0 001.567 10.826L44.51 9.66z" fill="#FF4D15" stroke="#FF4D15" stroke-width=".3"/><path d="M24.85 19.258v0c0 10.167 8.241 18.408 18.408 18.408 10.167 0 18.408-8.241 18.408-18.408C61.666 9.091 53.425.85 43.258.85h0C33.096.861 24.862 9.096 24.85 19.258zm18.408-15.59c8.61 0 15.59 6.98 15.59 15.59s-6.98 15.59-15.59 15.59-15.59-6.98-15.59-15.59c.01-8.606 6.984-15.58 15.59-15.59z" fill="#FF4D15" stroke="#FF4D15" stroke-width=".3"/><path d="M14.204 39.022a16.492 16.492 0 0115.049.1s0 0 0 0l.926.48-15.975-.58zm0 0l.05-1.846v0a1.409 1.409 0 00-1.37-1.447s0 0 0 0l-9.983-.275h0a1.408 1.408 0 00-1.447 1.37s0 0 0 0L.85 58.734h0a1.41 1.41 0 001.37 1.447l9.984.275h.039a1.41 1.41 0 001.41-1.37s0 0 0 0l.026-.961 2.517-1.348h0a4.3 4.3 0 013.209-.351h0l15.487 4.346h.001c.032.01.064.017.09.023h.003c1.13.237 2.28.355 3.434.355M14.204 39.022l20.049 1.632 9.105.25h0a8.183 8.183 0 016.908 4.18l9.732-4.598H60a6.51 6.51 0 018.595 2.62 1.41 1.41 0 01-.461 1.876l-.082-.126.082.126-22.457 14.526a1.32 1.32 0 01-.176.097 16.948 16.948 0 01-7.08 1.545m0 0s0 0 0 0V61v.15s0 0 0 0zm9.924-13.333a5.373 5.373 0 00-5.064-4.095l-9.105-.25h0a12.311 12.311 0 01-5.292-1.367h0l-.927-.48h0a13.69 13.69 0 00-13.843.698l-.346 12.558 1.098-.588 33.479-6.476zm0 0l-13.37-.369a1.41 1.41 0 00-1.448 1.37h0a1.41 1.41 0 001.37 1.448l14.968.411v0h.039a1.41 1.41 0 001.408-1.37s0 0 0 0l-.15-.004m-2.817-1.486l12.874-4.791m-10.057 6.277a7.99 7.99 0 00-.122-1.634m.122 1.634a1.26 1.26 0 01-1.258 1.225m1.258-1.225l-1.258 1.225m1.136-2.859l.064.136.103-.049a7.464 7.464 0 00-.02-.113l-.147.026zm0 0l10.117-4.78m0 0l.06.138.002-.001m-.062-.137l.03-.014.032.15m-.062-.136l.064.136h-.002m-11.315 7.503h-.035.035zm15.384-7.062L44.233 57.087a14.126 14.126 0 01-8.623.961l-15.442-4.335a7.113 7.113 0 00-5.301.58l50.422-10.827zm-31.035-2.812a9.467 9.467 0 01-4.074-1.052l4.074 1.052zM3.707 57.404l.525-19.094 7.167.197-.526 19.094-7.166-.198z" fill="#474443" stroke="#474443" stroke-width=".3"/></svg>