<svg xmlns="http://www.w3.org/2000/svg" width="69" viewBox="-29 0 51.75 46.569" height="62"><path stroke="#000" d="M3.763 19.927a.93.93 0 00-.326-.01c-1.088-.124-1.909-1.021-1.91-2.088a.938.938 0 00-.951-.926.938.938 0 00-.95.926c.003 1.782 1.226 3.343 2.989 3.814v.927c0 .511.425.926.95.926.525 0 .95-.415.95-.926v-.87c2.035-.416 3.418-2.263 3.204-4.278-.214-2.016-1.956-3.547-4.035-3.548-1.192 0-2.158-.941-2.158-2.103 0-1.16.966-2.102 2.158-2.102 1.191 0 2.157.941 2.157 2.102a.94.94 0 00.95.927c.525 0 .95-.415.95-.927-.002-1.87-1.347-3.485-3.226-3.87v-.844a.938.938 0 00-.95-.926.938.938 0 00-.95.926v.9c-1.961.522-3.223 2.377-2.953 4.34.27 1.964 1.989 3.43 4.022 3.429 1.175 0 2.134.918 2.156 2.063.022 1.145-.903 2.097-2.077 2.138zm0 0" stroke-width=".6"/><path stroke="#ff4d15" d="M-10.095 14.871c0 7.417 6.169 13.43 13.779 13.43s13.778-6.013 13.778-13.43S11.294 1.442 3.684 1.442c-7.607.008-13.77 6.016-13.78 13.43zM3.684 3.294c6.56 0 11.878 5.183 11.878 11.577S10.244 26.45 3.684 26.45c-6.56 0-11.879-5.184-11.879-11.578.008-6.39 5.321-11.57 11.879-11.577zm12.192 28.103l-7.443 3.427c-1.028-1.863-3-3.048-5.169-3.108l-6.871-.184a7.407 7.407 0 01-3.123-.786l-.7-.353a12.618 12.618 0 00-11.423.012l.044-1.544a.937.937 0 00-.924-.952l-7.535-.202a.94.94 0 00-.975.9l-.455 16.116a.937.937 0 00.923.952l7.535.202h.026a.94.94 0 00.95-.901l.022-.771 1.957-1.022a3.436 3.436 0 012.506-.267l11.69 3.198.061.015a12.957 12.957 0 007.865-.868c.041-.019.08-.04.118-.064l16.948-10.685a.913.913 0 00.312-1.233c-1.259-2.176-4.05-3.005-6.339-1.882zm-42.649 12.452l.403-14.265 5.635.151L-21.138 44zm30.754-.243a11.03 11.03 0 01-6.588.717l-11.658-3.19a5.376 5.376 0 00-3.916.418l-1 .522.267-9.484a10.677 10.677 0 0110.61-.551l.7.353a9.367 9.367 0 003.945.993l6.872.184c1.93.054 3.569 1.393 3.96 3.237l-10.235-.276a.94.94 0 00-.976.9c-.015.512.4.938.923.952l11.296.303h.027a.94.94 0 00.949-.9 5.732 5.732 0 00-.092-1.202l7.635-3.516a2.962 2.962 0 013.305.438zm0 0" fill="#ff4d15" stroke-width=".6"/></svg>