<svg width="60" height="60" fill="none" xmlns="http://www.w3.org/2000/svg"><g clip-path="url(#clip0)"><path d="M55.427 23.245C52.467 11.755 42.105 3.75 30.209 3.75h-.096C18.266 3.794 7.81 11.81 4.682 23.245l-3.618-.989C4.634 9.201 16.574.05 30.1 0h.11c13.61 0 25.463 9.16 28.85 22.31l-3.632.935z" fill="#474443"/><path d="M39.49 36.67l-12.793-3.446V13.93h3.75v16.42l10.02 2.7-.977 3.62z" fill="#FF4D15"/><path d="M29.79 60c-7.974 0-15.455-3.093-21.077-8.714C3.065 45.637-.03 38.112 0 30.096a30.19 30.19 0 011.064-7.84l3.619.988a26.427 26.427 0 00-.933 6.866c-.026 7.009 2.679 13.587 7.615 18.522 4.913 4.914 11.454 7.618 18.426 7.618h.098c14.481-.053 26.307-11.876 26.361-26.36a26.298 26.298 0 00-.824-6.647l3.633-.934c.635 2.469.951 5.024.941 7.595C59.94 46.44 46.436 59.94 29.901 60h-.11z" fill="#FF4D15"/></g><defs><clipPath id="clip0"><path fill="#fff" d="M0 0h60v60H0z"/></clipPath></defs></svg>