<svg width="88" height="58" fill="none" xmlns="http://www.w3.org/2000/svg"><g clip-path="url(#clip0)"><path d="M83.727 37.721a26.927 26.927 0 00-7.712-16.82l-.111-.11a30.529 30.529 0 00-13.683-7.91 30.618 30.618 0 00-7.906-1.033v-4.19c3.047 0 6.072.395 8.99 1.176a34.713 34.713 0 0115.563 8.995l.133.13a31.106 31.106 0 018.906 19.436l-4.18.326z" fill="#474443"/><path d="M54.316 45.817h7.51v4.19h-7.51v-4.19z" fill="#FF4D15"/><path d="M56.41 50.007H26.634v-4.19h25.584V4.19H4.19v41.627h6.458v4.19H0V0h56.41v50.007z" fill="#FF4D15"/><path d="M18.642 58c-5.562 0-10.09-4.525-10.09-10.088 0-5.563 4.526-10.087 10.09-10.087s10.09 4.524 10.09 10.087S24.203 58 18.641 58zm0-15.986a5.905 5.905 0 00-5.899 5.898 5.905 5.905 0 005.899 5.898 5.905 5.905 0 005.899-5.898 5.906 5.906 0 00-5.899-5.898zM69.817 58c-5.562 0-10.089-4.525-10.089-10.088 0-5.563 4.526-10.087 10.09-10.087 5.563 0 10.089 4.524 10.089 10.087S75.38 58 69.817 58zm0-15.986a5.906 5.906 0 00-5.898 5.898 5.906 5.906 0 005.898 5.898 5.906 5.906 0 005.9-5.898 5.905 5.905 0 00-5.9-5.898z" fill="#FF4D15"/><path d="M86.601 50.007h-8.788v-4.19h5.141l.857-6.153a27.341 27.341 0 00-.082-1.944l4.177-.321c.063.798.095 1.603.095 2.406l-.021.29-1.379 9.912z" fill="#FF4D15"/></g><defs><clipPath id="clip0"><path fill="#fff" d="M0 0h88v58H0z"/></clipPath></defs></svg>