<svg width="44" height="60" fill="none" xmlns="http://www.w3.org/2000/svg"><g clip-path="url(#clip0)"><path d="M22.43 32.364c-5.656 0-10.257-4.65-10.257-10.365s4.601-10.365 10.257-10.365S32.687 16.284 32.687 22s-4.6 10.365-10.257 10.365zm0-17.027c-3.636 0-6.594 2.988-6.594 6.662s2.958 6.663 6.594 6.663c3.637 0 6.594-2.99 6.594-6.663 0-3.674-2.957-6.662-6.594-6.662z" fill="#FF4D15"/><path d="M16.722 54.527C5.314 42.145 0 31.882 0 22.233h3.663c0 8.657 5.002 18.116 15.74 29.772l-2.681 2.522z" fill="#474443"/><path d="M22 60l-1.295-1.31a160.423 160.423 0 01-3.983-4.164l2.681-2.521c.82.89 1.69 1.81 2.596 2.745 12.503-12.916 18.338-23.278 18.338-32.516 0-10.22-8.226-18.532-18.336-18.532-10.111 0-18.338 8.313-18.338 18.532H0C0 9.974 9.869 0 22 0c12.132 0 22.001 9.973 22.001 22.234 0 10.743-6.385 21.986-20.705 36.457L22.001 60z" fill="#FF4D15"/></g><defs><clipPath id="clip0"><path fill="#fff" d="M0 0h44v60H0z"/></clipPath></defs></svg>