<svg width="87" height="87" fill="none" xmlns="http://www.w3.org/2000/svg"><path d="M87 28.92a1.277 1.277 0 00-.567-1.058l-8.094-5.396V11.871H62.452L47.012 1.575a6.312 6.312 0 00-7.023 0L24.548 11.871h-8.774a1.274 1.274 0 000 2.55H75.79v19.594L43.5 55.545l-32.29-21.53V14.421h4.634a1.274 1.274 0 000-2.55H8.66v10.594L.568 27.862A1.275 1.275 0 000 28.92v50.709c0 3.794 3.086 6.88 6.878 6.88h63.493a1.275 1.275 0 000-2.55H6.878a4.335 4.335 0 01-4.33-4.33V31.304l40.245 26.834a1.275 1.275 0 001.414 0L84.45 31.304V79.63a4.335 4.335 0 01-4.33 4.33h-9.847a1.274 1.274 0 000 2.55h9.848c3.792 0 6.878-3.086 6.878-6.88V28.92zM41.403 3.697a3.77 3.77 0 014.194 0l12.26 8.175H29.143l12.26-8.175zM8.66 25.529v6.787l-5.09-3.393 5.09-3.394zm69.678 6.787v-6.787l5.09 3.394-5.09 3.393z" fill="#FF4D15"/><path d="M76.317 78.961a1.275 1.275 0 00-.354-1.767l-26.047-17.37a1.274 1.274 0 10-1.414 2.121l26.047 17.37a1.274 1.274 0 001.767-.353zm-64.573.567c.243 0 .489-.07.706-.214l26.048-17.37a1.275 1.275 0 00-1.414-2.12L11.036 77.191a1.275 1.275 0 00.708 2.336z" fill="#FF4D15"/><path d="M56.27 25.497a1.274 1.274 0 100-2.548H30.73a1.274 1.274 0 100 2.548h25.54zm-33.519 5.468c0 .703.57 1.274 1.274 1.274h38.95a1.274 1.274 0 100-2.549h-38.95c-.704 0-1.274.57-1.274 1.275zm1.274 7.324h38.95a1.274 1.274 0 100-2.549h-38.95a1.274 1.274 0 100 2.549z" fill="#fff"/></svg>