<svg width="60" height="60" fill="none" xmlns="http://www.w3.org/2000/svg"><g clip-path="url(#clip0)"><path d="M30-.2c-7.043 0-12.778 5.735-12.778 12.779 0 3.556 1.42 7.469 3.717 10.494 2.296 3.023 5.493 5.19 9.062 5.19 3.568 0 6.765-2.167 9.061-5.19 2.297-3.025 3.717-6.938 3.717-10.494C42.78 5.535 37.044-.2 30.001-.2zm0 26.126c-2.775 0-5.383-1.809-7.308-4.407-1.922-2.596-3.133-5.942-3.133-8.94 0-5.76 4.682-10.442 10.442-10.442s10.441 4.682 10.441 10.442c0 2.998-1.21 6.344-3.133 8.94-1.925 2.598-4.533 4.407-7.308 4.407z" fill="#FF4D15" stroke="#FF4D15" stroke-width=".4"/><path d="M42.316 26.475h0l-.933-.567-.193-.117-.093.205-6.944 15.262-2.613-9.121h1.553V29.8h-6.388v2.337h1.742l-2.612 9.12-6.945-15.261-.093-.205-.193.117-.933.567h0C9.857 31.252 5.45 40.232 6.45 49.333h0l1.192 10.69.02.177h44.673l.02-.178 1.193-10.689h0c1-9.1-3.407-18.081-11.233-22.858zM8.785 49.077c-.857-7.76 2.654-15.43 9.013-19.875l12.02 26.44.181.4.183-.4L42.2 29.19c6.37 4.456 9.882 12.114 9.025 19.886 0 0 0 0 0 0l-.973 8.787H9.757l-.972-8.786zm18.545-4.542l2.67-9.32 2.669 9.32-2.67 5.864-2.669-5.864z" fill="#FF4D15" stroke="#FF4D15" stroke-width=".4"/><path d="M48.379 44.516h-7.736v1.937h7.736v-1.937z" fill="#474443"/></g><defs><clipPath id="clip0"><path fill="#fff" d="M0 0h60v60H0z"/></clipPath></defs></svg>