<svg width="88" height="88" fill="none" xmlns="http://www.w3.org/2000/svg"><path d="M85.69 67.887L67.88 56.01a5.199 5.199 0 00-6.962 1.13l-5.188 6.67a2.217 2.217 0 01-2.844.599l-.987-.544c-3.271-1.784-7.342-4.004-15.544-12.209-8.202-8.204-10.426-12.278-12.21-15.544l-.54-.987a2.22 2.22 0 01.586-2.853l6.666-5.187a5.202 5.202 0 001.132-6.962L20.111 2.312A5.172 5.172 0 0013.14.742L5.692 5.218A10.506 10.506 0 00.9 11.435C-1.781 21.206.236 38.073 25.08 62.92c19.764 19.762 34.477 25.076 44.59 25.076 2.327.01 4.646-.292 6.892-.9a10.496 10.496 0 006.218-4.79l4.479-7.444a5.172 5.172 0 00-1.568-6.975zm-.958 5.47l-4.469 7.448a7.579 7.579 0 01-4.472 3.467c-9.022 2.477-24.783.425-48.635-23.427C3.304 36.993 1.253 21.233 3.73 12.21A7.59 7.59 0 017.2 7.732l7.449-4.468a2.244 2.244 0 013.025.68l6.452 9.687 5.416 8.123c.649.98.435 2.295-.49 3.02l-6.668 5.188a5.133 5.133 0 00-1.359 6.587l.53.962c1.874 3.437 4.204 7.713 12.71 16.219 8.508 8.505 12.782 10.836 16.218 12.71l.964.53a5.133 5.133 0 006.587-1.359l5.187-6.668a2.259 2.259 0 013.02-.49l17.81 11.879c1 .663 1.3 1.997.68 3.025z" fill="#FF4D15"/><path d="M49.865 14.674c13.762.016 24.914 11.168 24.93 24.93a1.466 1.466 0 102.932 0c-.017-15.381-12.481-27.846-27.862-27.862a1.466 1.466 0 100 2.932z" fill="#fff"/><path d="M49.865 23.473c8.904.01 16.12 7.226 16.13 16.13a1.466 1.466 0 002.934 0c-.013-10.523-8.54-19.051-19.064-19.063a1.466 1.466 0 100 2.933z" fill="#fff"/><path d="M49.865 32.271a7.341 7.341 0 017.332 7.333 1.466 1.466 0 002.933 0c-.007-5.667-4.599-10.26-10.265-10.265a1.466 1.466 0 100 2.932z" fill="#fff"/></svg>