<svg width="59" height="59" fill="none" xmlns="http://www.w3.org/2000/svg"><path d="M29.5 59C13.234 59 0 45.767 0 29.499 0 13.233 13.234 0 29.5 0S59 13.233 59 29.499C59 45.767 45.766 59 29.5 59zm0-55.313c-14.234 0-25.813 11.58-25.813 25.812 0 14.235 11.58 25.814 25.813 25.814 14.234 0 25.813-11.58 25.813-25.814 0-14.233-11.58-25.811-25.813-25.811z" fill="#FF4D15"/><path d="M35.934 31.432l-.894-3.578a5.396 5.396 0 004.089-5.245 5.398 5.398 0 00-4.095-5.249l.891-3.578a9.08 9.08 0 016.891 8.827 9.077 9.077 0 01-6.882 8.823z" fill="#474443"/><path d="M21.728 29.642h3.687v16.194h-3.687V29.642zm3.686 0h-3.687V13.515h11.995c.741 0 1.48.09 2.2.268l-.886 3.579a5.516 5.516 0 00-1.314-.16h-8.308v12.44z" fill="#FF4D15"/><path d="M15.832 34.642h24.465v3.688H15.832v-3.688zm17.89-2.939h-9.498v-3.688h9.499c.443.001.885-.053 1.315-.16l.897 3.576a9.118 9.118 0 01-2.212.272zm-17.889-3.688h8.39v3.688h-8.39v-3.688z" fill="#FF4D15"/></svg>