<svg xmlns="http://www.w3.org/2000/svg" width="62" viewBox="0 0 46.5 46.5" height="62"><path stroke="#ff4d15" d="M8.592 35.75c-.636 0-1.247.16-1.79.457a20.975 20.975 0 01-4.426-12.873c0-11.545 9.394-20.938 20.94-20.938a21.1 21.1 0 014.17.415.887.887 0 00.352-1.74c-1.479-.298-3-.45-4.521-.45A22.567 22.567 0 007.255 7.275a22.563 22.563 0 00-6.653 16.06A22.753 22.753 0 005.49 37.41a3.7 3.7 0 00-.625 2.067 3.7 3.7 0 001.092 2.634 3.701 3.701 0 002.635 1.092c.995 0 1.931-.388 2.635-1.092a3.701 3.701 0 001.092-2.635 3.7 3.7 0 00-1.092-2.634 3.702 3.702 0 00-2.635-1.091zm1.38 5.107a1.939 1.939 0 01-1.38.572 1.94 1.94 0 01-1.38-.572 1.939 1.939 0 01-.572-1.38c0-.522.203-1.012.572-1.38a1.938 1.938 0 011.38-.572 1.94 1.94 0 011.38.571c.369.37.572.86.572 1.38 0 .522-.203 1.012-.572 1.38zm31.17-31.6a3.732 3.732 0 00-.466-4.7 3.704 3.704 0 00-2.635-1.092c-.995 0-1.931.388-2.635 1.091a3.702 3.702 0 00-1.092 2.635c0 .996.388 1.931 1.092 2.635a3.702 3.702 0 002.635 1.092c.636 0 1.247-.16 1.79-.457a20.976 20.976 0 014.426 12.873c0 11.546-9.394 20.938-20.94 20.938-1.39 0-2.78-.137-4.13-.407a.888.888 0 00-.35 1.74c1.466.293 2.973.442 4.48.442a22.567 22.567 0 0016.061-6.653 22.563 22.563 0 006.653-16.06 22.754 22.754 0 00-4.889-14.077zm-4.481-.685a1.939 1.939 0 01-.572-1.38c0-.522.203-1.012.572-1.38a1.939 1.939 0 011.38-.572 1.94 1.94 0 011.38.571 1.954 1.954 0 01-1.38 3.332 1.94 1.94 0 01-1.38-.571zm0 0" fill="#ff4d15" stroke-width=".6"/><path stroke="#ff4d15" d="M19.655 38.594c0 .49.398.887.887.887h5.548c.49 0 .888-.397.888-.887v-1.72a13.896 13.896 0 003.33-1.38l1.214 1.214a.887.887 0 001.255 0l3.922-3.924a.887.887 0 000-1.254l-1.213-1.213a13.893 13.893 0 001.38-3.33h1.713c.49 0 .888-.397.888-.887v-5.548a.887.887 0 00-.888-.887h-1.714a13.895 13.895 0 00-1.38-3.33l1.207-1.206a.888.888 0 000-1.255l-3.925-3.921a.887.887 0 00-1.254 0l-1.205 1.205a13.895 13.895 0 00-3.33-1.38V8.074a.887.887 0 00-.888-.887h-5.548a.887.887 0 00-.887.887v1.704a13.884 13.884 0 00-3.33 1.38L15.12 9.953a.888.888 0 00-1.255 0l-3.924 3.921a.886.886 0 000 1.255l1.206 1.207a13.89 13.89 0 00-1.38 3.329h-1.71a.887.887 0 00-.887.887l-.004 5.547a.886.886 0 00.888.888h1.713a13.893 13.893 0 001.38 3.33L9.934 31.53a.887.887 0 000 1.254l3.922 3.924c.166.166.392.26.627.26h0a.887.887 0 00.628-.26l1.214-1.214a13.908 13.908 0 003.33 1.38zm-2.982-4.966a.888.888 0 00-1.11.118l-1.08 1.08-2.667-2.669 1.08-1.08a.887.887 0 00.118-1.108 12.143 12.143 0 01-1.681-4.056.888.888 0 00-.868-.7H8.941l.002-3.774h1.522c.419 0 .78-.291.868-.7.31-1.447.876-2.811 1.68-4.056a.887.887 0 00-.117-1.109l-1.073-1.072 2.67-2.667 1.07 1.072a.888.888 0 001.11.117 12.14 12.14 0 014.056-1.68c.408-.088.7-.45.7-.868V8.961h3.774v1.515c0 .418.292.78.7.868a12.15 12.15 0 014.057 1.68.887.887 0 001.108-.118l1.072-1.071 2.67 2.667-1.073 1.072a.887.887 0 00-.118 1.11 12.151 12.151 0 011.68 4.055c.088.409.45.7.868.7h1.525v3.773h-1.525a.888.888 0 00-.867.701 12.141 12.141 0 01-1.68 4.056.887.887 0 00.117 1.109l1.08 1.079-2.668 2.669-1.08-1.08a.887.887 0 00-1.11-.118 12.154 12.154 0 01-4.055 1.68.887.887 0 00-.701.868v1.53H21.43v-1.53a.888.888 0 00-.701-.867 12.147 12.147 0 01-4.056-1.68zm0 0" fill="#ff4d15" stroke-width=".6"/><path d="M30.648 23.334c0-4.042-3.289-7.33-7.331-7.33-4.043 0-7.332 3.288-7.332 7.33s3.289 7.331 7.332 7.331c4.042 0 7.331-3.289 7.331-7.33zm-12.888 0a5.563 5.563 0 015.557-5.556 5.563 5.563 0 015.557 5.556 5.563 5.563 0 01-5.557 5.557 5.563 5.563 0 01-5.557-5.557zm0 0"/></svg>