<svg width="62" height="62" fill="none" xmlns="http://www.w3.org/2000/svg"><path d="M37.012 1.399h0a1.372 1.372 0 01-.544 2.69A27.665 27.665 0 0031 3.543C15.86 3.544 3.544 15.86 3.544 31a27.508 27.508 0 005.7 16.748 5.096 5.096 0 012.309-.548 5.09 5.09 0 013.622 1.5L37.012 1.4zm0 0A30.423 30.423 0 0031 .8m6.012.599L31 .8m0 0C22.934.8 15.35 3.942 9.645 9.645M31 .8L9.645 9.645m0 0C3.942 15.35.8 22.934.8 31M9.645 9.645L.8 31m0 0a30.256 30.256 0 006.41 18.603M.8 31l6.41 18.603m0 0a5.09 5.09 0 00-.779 2.72c0 1.367.533 2.654 1.5 3.62a5.088 5.088 0 003.622 1.501 5.09 5.09 0 003.622-1.5l-7.965-6.34zm6.024 4.4h0a2.36 2.36 0 01-1.681.697 2.36 2.36 0 01-1.682-.696 2.361 2.361 0 01-.696-1.682c0-.636.247-1.232.696-1.682h0a2.36 2.36 0 011.682-.696c.635 0 1.232.247 1.681.696.45.45.697 1.046.697 1.682a2.36 2.36 0 01-.697 1.682zm1.94 1.94a5.089 5.089 0 001.5-3.621 5.088 5.088 0 00-1.5-3.622v7.243zM54.069 6.056h0a5.091 5.091 0 00-3.622-1.5 5.091 5.091 0 00-3.622 1.5h0a5.09 5.09 0 00-1.5 3.622 5.09 5.09 0 001.5 3.621 5.09 5.09 0 003.622 1.5c.815 0 1.601-.19 2.309-.547A27.51 27.51 0 0158.456 31c0 15.14-12.317 27.456-27.456 27.456-1.823 0-3.645-.18-5.416-.534h0a1.373 1.373 0 00-1.615 1.076h0a1.372 1.372 0 001.076 1.615h0c1.948.39 3.952.587 5.955.587 8.066 0 15.65-3.142 21.355-8.845C58.058 46.65 61.2 39.066 61.2 31a30.258 30.258 0 00-6.411-18.605 5.13 5.13 0 00-.72-6.34zm-5.303 1.94h0a2.36 2.36 0 011.681-.696c.636 0 1.232.247 1.682.696a2.382 2.382 0 010 3.364 2.364 2.364 0 01-1.682.696 2.36 2.36 0 01-1.681-.696 2.361 2.361 0 01-.697-1.682c0-.636.247-1.232.697-1.682z" fill="#FF4D15" stroke="#FF4D15" stroke-width=".4"/><mask id="a" maskUnits="userSpaceOnUse" x="8.67" y="8.672" width="45" height="45" fill="#000"><path fill="#fff" d="M8.67 8.672h45v45h-45z"/><path d="M26.164 51.156c0 .648.525 1.172 1.172 1.172h7.327c.648 0 1.172-.525 1.172-1.172v-2.272a18.352 18.352 0 004.398-1.822l1.604 1.604a1.172 1.172 0 001.658 0l5.18-5.184c.456-.457.456-1.2 0-1.657l-1.603-1.602a18.354 18.354 0 001.823-4.398h2.263c.647 0 1.172-.525 1.172-1.172v-7.327c0-.648-.525-1.172-1.172-1.172h-2.264a18.354 18.354 0 00-1.822-4.398l1.593-1.594a1.172 1.172 0 000-1.658l-5.183-5.179a1.172 1.172 0 00-1.657 0l-1.592 1.592a18.348 18.348 0 00-4.398-1.822v-2.251c0-.647-.524-1.172-1.172-1.172h-7.327c-.647 0-1.172.524-1.172 1.172v2.251a18.338 18.338 0 00-4.398 1.822l-1.591-1.591a1.172 1.172 0 00-1.657 0l-5.183 5.179a1.17 1.17 0 000 1.657l1.593 1.594a18.347 18.347 0 00-1.823 4.398h-2.26c-.646 0-1.171.524-1.171 1.171l-.004 7.328a1.17 1.17 0 001.172 1.172h2.263a18.35 18.35 0 001.823 4.398l-1.602 1.602a1.172 1.172 0 000 1.657l5.179 5.183a1.172 1.172 0 001.657 0l1.604-1.603a18.37 18.37 0 004.398 1.822v2.272zm-3.939-6.559a1.172 1.172 0 00-1.464.156l-1.427 1.426-3.523-3.525 1.426-1.426c.39-.39.455-1 .155-1.464a16.04 16.04 0 01-2.22-5.357 1.172 1.172 0 00-1.145-.926h-2.013l.003-4.984h2.01c.552 0 1.03-.385 1.146-.925a16.041 16.041 0 012.22-5.357c.3-.464.234-1.074-.156-1.464l-1.417-1.417 3.526-3.523 1.415 1.416c.39.39 1 .455 1.465.155a16.033 16.033 0 015.356-2.22c.54-.116.926-.593.926-1.145v-2.001h4.984v2c0 .553.385 1.03.925 1.146a16.05 16.05 0 015.357 2.22 1.17 1.17 0 001.464-.156l1.416-1.415 3.525 3.523-1.416 1.416a1.172 1.172 0 00-.156 1.465 16.05 16.05 0 012.22 5.357c.115.54.593.925 1.145.925h2.014v4.984h-2.014a1.17 1.17 0 00-1.145.926 16.038 16.038 0 01-2.22 5.356c-.3.465-.235 1.075.156 1.465l1.425 1.426-3.523 3.525-1.426-1.426a1.172 1.172 0 00-1.465-.156 16.055 16.055 0 01-5.357 2.22 1.17 1.17 0 00-.925 1.145v2.022h-4.984v-2.022a1.17 1.17 0 00-.926-1.145 16.044 16.044 0 01-5.357-2.22z"/></mask><path d="M26.164 51.156c0 .648.525 1.172 1.172 1.172h7.327c.648 0 1.172-.525 1.172-1.172v-2.272a18.352 18.352 0 004.398-1.822l1.604 1.604a1.172 1.172 0 001.658 0l5.18-5.184c.456-.457.456-1.2 0-1.657l-1.603-1.602a18.354 18.354 0 001.823-4.398h2.263c.647 0 1.172-.525 1.172-1.172v-7.327c0-.648-.525-1.172-1.172-1.172h-2.264a18.354 18.354 0 00-1.822-4.398l1.593-1.594a1.172 1.172 0 000-1.658l-5.183-5.179a1.172 1.172 0 00-1.657 0l-1.592 1.592a18.348 18.348 0 00-4.398-1.822v-2.251c0-.647-.524-1.172-1.172-1.172h-7.327c-.647 0-1.172.524-1.172 1.172v2.251a18.338 18.338 0 00-4.398 1.822l-1.591-1.591a1.172 1.172 0 00-1.657 0l-5.183 5.179a1.17 1.17 0 000 1.657l1.593 1.594a18.347 18.347 0 00-1.823 4.398h-2.26c-.646 0-1.171.524-1.171 1.171l-.004 7.328a1.17 1.17 0 001.172 1.172h2.263a18.35 18.35 0 001.823 4.398l-1.602 1.602a1.172 1.172 0 000 1.657l5.179 5.183a1.172 1.172 0 001.657 0l1.604-1.603a18.37 18.37 0 004.398 1.822v2.272zm-3.939-6.559a1.172 1.172 0 00-1.464.156l-1.427 1.426-3.523-3.525 1.426-1.426c.39-.39.455-1 .155-1.464a16.04 16.04 0 01-2.22-5.357 1.172 1.172 0 00-1.145-.926h-2.013l.003-4.984h2.01c.552 0 1.03-.385 1.146-.925a16.041 16.041 0 012.22-5.357c.3-.464.234-1.074-.156-1.464l-1.417-1.417 3.526-3.523 1.415 1.416c.39.39 1 .455 1.465.155a16.033 16.033 0 015.356-2.22c.54-.116.926-.593.926-1.145v-2.001h4.984v2c0 .553.385 1.03.925 1.146a16.05 16.05 0 015.357 2.22 1.17 1.17 0 001.464-.156l1.416-1.415 3.525 3.523-1.416 1.416a1.172 1.172 0 00-.156 1.465 16.05 16.05 0 012.22 5.357c.115.54.593.925 1.145.925h2.014v4.984h-2.014a1.17 1.17 0 00-1.145.926 16.038 16.038 0 01-2.22 5.356c-.3.465-.235 1.075.156 1.465l1.425 1.426-3.523 3.525-1.426-1.426a1.172 1.172 0 00-1.465-.156 16.055 16.055 0 01-5.357 2.22 1.17 1.17 0 00-.925 1.145v2.022h-4.984v-2.022a1.17 1.17 0 00-.926-1.145 16.044 16.044 0 01-5.357-2.22z" fill="#FF4D15"/><path d="M26.164 51.156c0 .648.525 1.172 1.172 1.172h7.327c.648 0 1.172-.525 1.172-1.172v-2.272a18.352 18.352 0 004.398-1.822l1.604 1.604a1.172 1.172 0 001.658 0l5.18-5.184c.456-.457.456-1.2 0-1.657l-1.603-1.602a18.354 18.354 0 001.823-4.398h2.263c.647 0 1.172-.525 1.172-1.172v-7.327c0-.648-.525-1.172-1.172-1.172h-2.264a18.354 18.354 0 00-1.822-4.398l1.593-1.594a1.172 1.172 0 000-1.658l-5.183-5.179a1.172 1.172 0 00-1.657 0l-1.592 1.592a18.348 18.348 0 00-4.398-1.822v-2.251c0-.647-.524-1.172-1.172-1.172h-7.327c-.647 0-1.172.524-1.172 1.172v2.251a18.338 18.338 0 00-4.398 1.822l-1.591-1.591a1.172 1.172 0 00-1.657 0l-5.183 5.179a1.17 1.17 0 000 1.657l1.593 1.594a18.347 18.347 0 00-1.823 4.398h-2.26c-.646 0-1.171.524-1.171 1.171l-.004 7.328a1.17 1.17 0 001.172 1.172h2.263a18.35 18.35 0 001.823 4.398l-1.602 1.602a1.172 1.172 0 000 1.657l5.179 5.183c.22.22.518.344.828.344h0c.312 0 .61-.124.83-.343l1.603-1.604a18.37 18.37 0 004.398 1.822v2.272zm-3.939-6.559a1.172 1.172 0 00-1.464.156l-1.427 1.426-3.523-3.525 1.426-1.426c.39-.39.455-1 .155-1.464a16.04 16.04 0 01-2.22-5.357 1.172 1.172 0 00-1.145-.926h-2.013l.003-4.984h2.01c.552 0 1.03-.385 1.146-.925a16.041 16.041 0 012.22-5.357c.3-.464.234-1.074-.156-1.464l-1.417-1.417 3.526-3.523 1.415 1.416c.39.39 1 .455 1.465.155a16.033 16.033 0 015.356-2.22c.54-.116.926-.593.926-1.145v-2.001h4.984v2c0 .553.385 1.03.925 1.146a16.05 16.05 0 015.357 2.22 1.17 1.17 0 001.464-.156l1.416-1.415 3.525 3.523-1.416 1.416a1.172 1.172 0 00-.156 1.465 16.05 16.05 0 012.22 5.357c.115.54.593.925 1.145.925h2.014v4.984h-2.014a1.17 1.17 0 00-1.145.926 16.038 16.038 0 01-2.22 5.356c-.3.465-.235 1.075.156 1.465l1.425 1.426-3.523 3.525-1.426-1.426a1.172 1.172 0 00-1.465-.156 16.055 16.055 0 01-5.357 2.22 1.17 1.17 0 00-.925 1.145v2.022h-4.984v-2.022a1.17 1.17 0 00-.926-1.145 16.044 16.044 0 01-5.357-2.22z" stroke="#FF4D15" stroke-width=".8" mask="url(#a)"/><path d="M40.883 31c0-5.45-4.434-9.884-9.884-9.884S21.117 25.55 21.117 31 25.55 40.883 31 40.883s9.883-4.434 9.883-9.884zM23.86 31c0-3.937 3.203-7.14 7.14-7.14 3.936 0 7.139 3.203 7.139 7.14 0 3.936-3.203 7.139-7.14 7.139-3.936 0-7.139-3.203-7.139-7.14z" fill="#474443" stroke="#474443" stroke-width=".4"/></svg>