<svg width="50" height="50" fill="none" xmlns="http://www.w3.org/2000/svg"><path fill-rule="evenodd" clip-rule="evenodd" d="M19.974.675c2.013 3.416 4.508 6.598 6.922 9.677 2.723 3.474 5.362 6.84 7.168 10.345-7.913 1.29-13.953 8.156-13.953 16.434 0 3.532 1.1 6.807 2.975 9.502a17.695 17.695 0 01-4.384.548C8.932 47.181.988 39.239.988 29.47c0-6.975 4.623-12.873 9.518-19.117 2.414-3.079 4.909-6.261 6.925-9.677.529-.9 2.01-.9 2.542 0z" fill="#C7150C"/><path d="M37.146 24.262c-7.053 0-12.792 5.739-12.792 12.792s5.739 12.792 12.792 12.792c7.054 0 12.792-5.738 12.792-12.792 0-7.053-5.738-12.792-12.792-12.792zm6.4 9.661l-6.888 7.872c-.358.41-.87.653-1.415.671h-.065a1.966 1.966 0 01-1.391-.577l-3.936-3.936a1.966 1.966 0 010-2.782c.77-.77 2.013-.77 2.783 0l2.448 2.448 5.502-6.29a1.97 1.97 0 012.777-.185 1.97 1.97 0 01.185 2.779z" fill="#C7150C"/></svg>