<svg width="50" height="50" fill="none" xmlns="http://www.w3.org/2000/svg"><g clip-path="url(#clip0)" fill="#C7150C"><path d="M33.333 19.042a4.707 4.707 0 00-4.687-4.459h-1.563v-4.166C27.083 4.673 22.41 0 16.667 0 10.923 0 6.25 4.673 6.25 10.417v4.166H4.687A4.695 4.695 0 000 19.271v17.708a4.695 4.695 0 004.688 4.688H19.52a17.9 17.9 0 01-.771-5.209c0-8.708 6.292-15.958 14.583-17.416zm-22.916-4.459v-4.166a6.258 6.258 0 016.25-6.25 6.258 6.258 0 016.25 6.25v4.166h-12.5z"/><path d="M36.458 22.916c-7.466 0-13.541 6.075-13.541 13.542S28.992 50 36.458 50C43.925 50 50 43.925 50 36.458c0-7.466-6.075-13.541-13.542-13.541zm6.775 10.228l-7.291 8.333a2.08 2.08 0 01-1.498.71h-.069a2.081 2.081 0 01-1.473-.61l-4.167-4.167a2.08 2.08 0 010-2.946 2.08 2.08 0 012.946 0l2.592 2.592 5.825-6.658a2.086 2.086 0 012.94-.196c.864.758.954 2.075.195 2.942z"/></g><defs><clipPath id="clip0"><path fill="#fff" d="M0 0h50v50H0z"/></clipPath></defs></svg>