<svg width="50" height="50" fill="none" xmlns="http://www.w3.org/2000/svg"><g clip-path="url(#clip0)" fill="#C7150C"><path d="M36.458 22.916c-7.466 0-13.541 6.075-13.541 13.542S28.992 50 36.458 50C43.925 50 50 43.925 50 36.458c0-7.466-6.075-13.541-13.542-13.541zm6.775 10.228l-7.291 8.333a2.08 2.08 0 01-1.498.71h-.069a2.081 2.081 0 01-1.473-.61l-4.167-4.167a2.08 2.08 0 010-2.946 2.08 2.08 0 012.946 0l2.592 2.592 5.825-6.658a2.086 2.086 0 012.94-.196c.864.758.954 2.075.195 2.942z"/><path d="M34.75 6.313L18.083.063c-.25-.084-.5-.084-.75 0L.667 6.313A1.044 1.044 0 000 7.292v13.396c0 19 17.313 23 17.48 23.041.082.021.145.021.228.021.084 0 .146 0 .23-.02.041 0 .854-.188 2.104-.667a17.433 17.433 0 01-1.292-6.605c0-9.416 7.375-17.145 16.667-17.687V7.29c0-.437-.271-.833-.667-.979z"/></g><defs><clipPath id="clip0"><path fill="#fff" d="M0 0h50v50H0z"/></clipPath></defs></svg>