<svg width="385" height="680" fill="none" xmlns="http://www.w3.org/2000/svg"><path d="M385 0v26.965h-35.439c-7.824 5.784-15.803 14.538-23.939 26.263-8.137 11.724-18.933 31.108-32.389 58.151-13.456 26.888-30.51 63.545-51.164 109.973-20.653 46.271-51.79 117.554-93.409 213.848L42.811 680H14.882L-226.387 77.848c-13.925-33.922-38.255-50.883-72.99-50.883H-309V0h238.452v26.965h-39.429c-13.143 0-21.748 2.345-25.816 7.035-3.912 4.533-5.868 11.49-5.868 20.869 0 2.97.313 5.471.939 7.503.782 2.033 1.956 4.924 3.52 8.676 1.722 3.596 2.739 5.862 3.052 6.8L61.118 562.993l144.104-338.124c4.381-9.067 14.473-34.938 30.276-77.614 15.803-42.676 23.704-68.078 23.704-76.207 0-29.388-8.684-44.083-26.051-44.083h-45.062V0H385z" fill="#FCFBFC"/><path d="M358.5 1V.5H161.44v27.847h45.367c8.474 0 14.793 3.567 19.024 10.726 4.255 7.2 6.415 18.065 6.415 32.662 0 1.962-.48 5.012-1.462 9.18-.979 4.156-2.451 9.392-4.416 15.709-3.93 12.632-9.827 29.567-17.693 50.808-15.738 42.498-25.777 68.227-30.126 77.227l-.005.011-.005.011L35.531 560.203-158.432 78.347l-.005-.015c-.329-.978-1.354-3.257-3.051-6.801-1.55-3.719-2.713-6.584-3.489-8.597-.6-1.958-.907-4.39-.907-7.307 0-9.282 1.938-16.066 5.72-20.45 1.937-2.233 4.989-3.945 9.217-5.097 4.227-1.152 9.592-1.733 16.11-1.733h39.759V.5H-333.5v27.847h10.081c17.208 0 31.807 4.2 43.822 12.574 12.016 8.376 21.485 20.955 28.39 37.772l.001.002 240.224 599.491.126.314h28.475l.13-.302 105.391-243.72-.459-.198.459.198c41.44-95.869 72.441-166.835 93.004-212.899v-.001c20.563-46.219 37.54-82.707 50.933-109.466l.001-.001c13.396-26.921 24.132-46.192 32.211-57.833 8.037-11.58 15.902-20.216 23.59-25.931H358.5V1z" stroke="url(#paint0_linear)"/><defs><linearGradient id="paint0_linear" x1="12.5" y1="1" x2="12.5" y2="678" gradientUnits="userSpaceOnUse"><stop stop-color="#FBE6A3"/><stop offset="1" stop-color="#F4B334"/></linearGradient></defs></svg>