<?xml version="1.0" encoding="UTF-8"?>
<!DOCTYPE svg PUBLIC "-//W3C//DTD SVG 1.1//EN" "http://www.w3.org/Graphics/SVG/1.1/DTD/svg11.dtd">
<!-- Creator: CorelDRAW 2017 -->
<svg xmlns="http://www.w3.org/2000/svg" xml:space="preserve" width="510px" height="510px" version="1.1" style="shape-rendering:geometricPrecision; text-rendering:geometricPrecision; image-rendering:optimizeQuality; fill-rule:evenodd; clip-rule:evenodd"
viewBox="0 0 510 510"
 xmlns:xlink="http://www.w3.org/1999/xlink">
 <defs>
  <style type="text/css">
   <![CDATA[
    .fil0 {fill:#444444}
   ]]>
  </style>
 </defs>
 <g id="Слой_x0020_1">
  <metadata id="CorelCorpID_0Corel-Layer"/>
  <g id="_637030992">
   <g id="bluetooth-audio">
    <path class="fil0" d="M311.1 255l58.65 58.65c7.65,-17.85 10.2,-38.25 10.2,-58.65 0,-20.4 -5.1,-40.8 -10.2,-58.65l-58.65 58.65zm135.15 -135.15l-30.6 33.15c15.3,30.6 25.5,66.3 25.5,102 0,35.7 -10.2,71.4 -25.5,102l30.6 30.6c25.5,-38.25 38.25,-86.7 38.25,-135.15 0,-48.45 -12.75,-94.35 -38.25,-132.6zm-96.9 25.5l-145.35 -145.35 -25.5 0 0 193.8 -117.3 -117.3 -35.7 35.7 142.8 142.8 -142.8 142.8 35.7 35.7 117.3 -117.3 0 193.8 25.5 0 145.35 -145.35 -109.65 -109.65 109.65 -109.65zm-119.85 -48.45l48.45 48.45 -48.45 48.45 0 -96.9zm48.45 267.75l-48.45 48.45 0 -96.9 48.45 48.45z"/>
   </g>
  </g>
  <g id="_637043472">
  </g>
  <g id="_637029168">
  </g>
  <g id="_637034544">
  </g>
  <g id="_637034416">
  </g>
  <g id="_637031216">
  </g>
  <g id="_637030032">
  </g>
  <g id="_637034128">
  </g>
  <g id="_637029136">
  </g>
  <g id="_637034160">
  </g>
  <g id="_637033264">
  </g>
  <g id="_637038896">
  </g>
  <g id="_637035536">
  </g>
  <g id="_637029968">
  </g>
  <g id="_637035344">
  </g>
  <g id="_637032784">
  </g>
 </g>
</svg>
