<svg width="23" height="23" fill="none" xmlns="http://www.w3.org/2000/svg"><path d="M18.379 2.85A9.664 9.664 0 0011.5 0a9.664 9.664 0 00-6.878 2.85 9.664 9.664 0 00-2.85 6.878c0 5.256 4.97 9.628 7.64 11.977.372.326.692.608.947.847.32.299.73.448 1.141.448.41 0 .821-.15 1.141-.448.255-.239.576-.52.947-.847 2.67-2.349 7.64-6.72 7.64-11.977a9.664 9.664 0 00-2.85-6.879zm-5.681 17.844c-.38.333-.707.621-.977.873a.325.325 0 01-.442 0c-.27-.252-.597-.54-.976-.874-2.51-2.208-7.183-6.318-7.183-10.965 0-4.621 3.76-8.38 8.38-8.38 4.621 0 8.38 3.759 8.38 8.38 0 4.647-4.672 8.757-7.182 10.966z" fill="#FFC701"/><path d="M11.5 5.073A4.292 4.292 0 007.213 9.36a4.292 4.292 0 004.287 4.287 4.292 4.292 0 004.287-4.287A4.292 4.292 0 0011.5 5.073zm0 7.227a2.943 2.943 0 01-2.94-2.94c0-1.62 1.319-2.94 2.94-2.94a2.943 2.943 0 012.94 2.94c0 1.621-1.32 2.94-2.94 2.94z" fill="#FFC701"/></svg>