<svg width="25" height="25" fill="none" xmlns="http://www.w3.org/2000/svg"><g clip-path="url(#clip0)"><path d="M22.803 3.71H2.197A2.2 2.2 0 000 5.909v13.184a2.2 2.2 0 002.197 2.197h20.606A2.2 2.2 0 0025 19.092V5.908a2.2 2.2 0 00-2.197-2.197zm-.308 1.466l-8.441 8.397a2.183 2.183 0 01-1.554.643 2.184 2.184 0 01-1.555-.645l-8.44-8.395h19.99zM1.465 18.794V6.207l6.33 6.297-6.33 6.29zm1.04 1.03l6.328-6.287 1.078 1.071a3.638 3.638 0 002.589 1.073c.978 0 1.898-.38 2.588-1.071l1.079-1.073 6.327 6.287H2.506zm21.03-1.03l-6.33-6.29 6.33-6.297v12.587z" fill="#FFC701"/></g><defs><clipPath id="clip0"><path fill="#fff" d="M0 0h25v25H0z"/></clipPath></defs></svg>