<svg width="26" height="26" fill="none" xmlns="http://www.w3.org/2000/svg"><g clip-path="url(#clip0)"><path d="M2.817 1.166a3.954 3.954 0 00-.223.283C1.364 3.08-.104 5.585.006 8.003c.187 4.049 5.65 9.43 7.322 10.983 1.67 1.553 7.437 6.61 11.485 6.5a6.822 6.822 0 002.125-.422c1.696-.608 3.228-1.765 4.2-2.617 0 0 .21-.178.29-.264.204-.22.365-.54.492-.98a2.31 2.31 0 00.08-.62c0-.176-.018-.518-.134-.83-.159-.425-.341-.73-.56-.935-.16-.15-3.81-3.01-3.834-3.026l-.027-.018a2.53 2.53 0 00-.615-.353 2.447 2.447 0 00-1.716-.025 2.322 2.322 0 00-.918.602l-1.254 1.342a1.216 1.216 0 01-.414.276.988.988 0 01-.174.02L7.936 9.813a.15.15 0 01-.036-.05c.004-.013.01-.023.012-.032a2.88 2.88 0 01.358-.458L9.51 7.93c.657-.707.82-1.805.402-2.661-.15-.306-.353-.534-.447-.641l-.05-.061c-.024-.028-3.096-3.4-3.234-3.527C5.84.723 5.302.551 4.537.515 4.112.495 3.58.62 3.27.812a2.259 2.259 0 00-.453.354zm2.318.97a752.11 752.11 0 013.116 3.4l.103.124c.042.047.14.157.198.274a.887.887 0 01-.152.968L7.157 8.247c-.145.157-.498.559-.639.893a1.603 1.603 0 00-.137.643c.015.431.198.833.52 1.137l8.503 7.901c.323.3.794.396 1.398.285.468-.086.974-.44 1.247-.731l1.256-1.346a.817.817 0 01.32-.207.944.944 0 01.653.01c.12.047.22.125.253.15a.935.935 0 00.08.057c.349.27 3.487 2.737 3.657 2.88.001.002.075.085.18.364.014.04.038.155.038.3a.785.785 0 01-.02.198c-.078.27-.143.365-.143.367-.05.05-.151.133-.169.148-.887.777-2.254 1.814-3.727 2.342a5.311 5.311 0 01-1.653.334c-2.765.075-7.34-3.237-10.415-6.096-3.077-2.857-6.713-7.177-6.84-9.943-.093-1.994 1.203-4.14 2.27-5.556l.042-.054c.023-.032.066-.093.089-.12.037-.035.094-.07.139-.098.067-.034.275-.083.406-.076.447.021.654.102.67.108z" fill="#FFC701"/></g><defs><clipPath id="clip0"><path fill="#fff" transform="rotate(-90 13 13)" d="M0 0h26v26H0z"/></clipPath></defs></svg>