<svg width="20" height="20" fill="#fff" xmlns="http://www.w3.org/2000/svg"><path d="M18.936 0H1.064C.476 0 0 .476 0 1.064v17.872C0 19.524.476 20 1.064 20h17.872c.588 0 1.064-.476 1.064-1.064V1.064C20 .476 19.524 0 18.936 0zM15.93 11.264c.545.532 1.121 1.033 1.61 1.621.217.26.422.528.577.83.221.43.021.903-.364.929l-2.395-.001c-.619.05-1.111-.198-1.526-.62-.331-.338-.639-.698-.958-1.046a2.257 2.257 0 00-.43-.385c-.327-.212-.61-.147-.798.194-.19.347-.235.731-.252 1.118-.027.565-.197.712-.764.738-1.21.057-2.36-.127-3.427-.736-.942-.539-1.67-1.3-2.306-2.16C3.66 10.07 2.712 8.23 1.861 6.336c-.192-.427-.051-.655.419-.664a65.29 65.29 0 012.345 0c.318.004.528.186.65.486.423 1.04.941 2.029 1.59 2.946.173.244.35.487.6.66.278.19.49.128.62-.182.084-.197.12-.407.138-.618.062-.723.07-1.445-.038-2.165-.067-.45-.32-.741-.77-.826-.228-.044-.194-.128-.083-.259.192-.226.374-.365.735-.365h2.707c.426.083.521.274.58.704l.002 3.007c-.005.166.083.659.382.768.239.079.397-.113.54-.265.649-.688 1.11-1.501 1.525-2.342.182-.371.34-.755.494-1.14.113-.284.29-.424.611-.42l2.606.004c.077 0 .155 0 .231.013.439.076.559.264.424.693-.214.673-.63 1.234-1.037 1.796-.435.601-.899 1.182-1.33 1.786-.395.554-.364.833.128 1.313z"/></svg>