<svg width="41" height="40" viewBox="0 0 41 40" fill="none" xmlns="http://www.w3.org/2000/svg">
<g clip-path="url(#clip0)">
<path d="M39.4007 0H9.37382C9.00532 0 8.70655 0.298499 8.70655 0.666665V10.6666H10.0411V1.33333H38.7334V37.9999C38.7399 38.3505 38.4691 38.6442 38.1189 38.6666C38.0615 38.6666 38.0041 38.6619 37.9467 38.6606C37.8286 38.6573 37.7105 38.6546 37.5944 38.6426C37.5844 38.6426 37.5751 38.6426 37.5651 38.6386C35.3858 38.4006 33.6643 36.6823 33.424 34.5053C33.424 34.4959 33.4207 34.4859 33.4194 34.4766C33.4032 34.3182 33.3952 34.1591 33.3953 33.9999V32.6666C33.3953 32.2984 33.0966 31.9999 32.7281 31.9999H10.0411V20H8.70655V31.9999H3.36844C2.99994 31.9999 2.70117 32.2984 2.70117 32.6666V33.9999C2.70484 37.3121 5.39142 39.9963 8.70655 39.9999H38.1329C39.2157 39.9716 40.0763 39.0821 40.068 37.9999V0.666665C40.068 0.298499 39.7692 0 39.4007 0ZM8.70655 38.6666C6.12816 38.6637 4.03862 36.576 4.0357 33.9999V33.3333H32.0608V33.9999C32.0617 34.2198 32.0744 34.4394 32.0988 34.6579C32.1048 34.7159 32.1162 34.7719 32.1242 34.8293C32.1462 34.9906 32.1729 35.1513 32.2083 35.3093C32.2203 35.3646 32.2356 35.4193 32.2496 35.4746C32.2903 35.6353 32.3364 35.7933 32.3898 35.9493C32.4051 35.9939 32.4211 36.0379 32.4378 36.0826C32.4985 36.2479 32.5673 36.4093 32.6427 36.5686C32.6587 36.6013 32.6734 36.6353 32.6894 36.6653C32.773 36.8342 32.8649 36.9983 32.9649 37.1579C32.9783 37.1793 32.9903 37.2013 33.0036 37.2246C33.1124 37.3948 33.2299 37.5595 33.3553 37.7179L33.3767 37.7466C33.5223 37.9293 33.6783 38.1036 33.8437 38.2686C33.9874 38.4108 34.1364 38.5442 34.2908 38.6686L8.70655 38.6666Z" fill="#4985FF"/>
<path d="M22.051 18.6667C22.228 18.6667 22.3976 18.5963 22.5227 18.4713L25.1918 15.8047C25.4523 15.5443 25.4523 15.1223 25.1918 14.862L22.5227 12.1953C22.3976 12.0703 22.228 12 22.051 12H3.36757C1.525 12 0.03125 13.4924 0.03125 15.3333C0.03125 17.1742 1.525 18.6667 3.36757 18.6667H22.051ZM21.8788 13.4373L23.7765 15.3333L21.8788 17.2293L21.4044 15.3333L21.8788 13.4373ZM5.36936 13.3333H20.5296L20.196 14.6667H6.70389V16H20.196L20.5296 17.3333H5.36936V13.3333ZM1.36578 15.3333C1.36578 14.2287 2.262 13.3333 3.36757 13.3333H4.03484V17.3333H3.36757C2.262 17.3333 1.36578 16.4379 1.36578 15.3333Z" fill="#4985FF"/>
<path d="M15.3781 28.6666H35.396C35.7645 28.6666 36.0633 28.3681 36.0633 27.9999V7.99999C36.0632 7.63183 35.7644 7.33341 35.3958 7.3335C35.2189 7.3335 35.0494 7.40375 34.9242 7.52866L14.9063 27.5286C14.6457 27.789 14.6458 28.2111 14.9065 28.4714C15.0316 28.5964 15.2012 28.6666 15.3781 28.6666ZM34.7287 9.60932V11.3333H33.3942V12.6666H34.7287V14H33.3942V15.3333H34.7287V16.6666H33.3942V18H34.7287V19.3333H33.3942V20.6666H34.7287V22H33.3942V23.3333H34.7287V24.6666H33.3942V25.9999H34.7287V27.3333H33.3942V25.9999H32.0597V27.3333H30.7251V25.9999H29.3906V27.3333H28.0561V25.9999H26.7216V27.3333H25.387V25.9999H24.0525V27.3333H22.718V25.9999H21.3834V27.3333H20.0489V25.9999H18.7144V27.3333H16.9888L34.7287 9.60932Z" fill="#4985FF"/>
<path d="M25.0441 24.6667H31.3931C31.7616 24.6667 32.0604 24.3682 32.0604 24V17.6567C32.0603 17.2886 31.7615 16.9902 31.3929 16.9902C31.216 16.9902 31.0465 17.0605 30.9214 17.1854L24.5723 23.5287C24.3118 23.7891 24.3118 24.2112 24.5725 24.4715C24.6976 24.5965 24.8672 24.6667 25.0441 24.6667ZM30.7258 19.2667V23.3334H26.6555L30.7258 19.2667Z" fill="#4985FF"/>
<path d="M30.7261 4H17.3809V5.33333H30.7261V4Z" fill="#4985FF"/>
<path d="M32.7278 6.6665H15.3789V7.99983H32.7278V6.6665Z" fill="#4985FF"/>
<path d="M15.3786 20.6665H11.375V21.9998H15.3786V20.6665Z" fill="#4985FF"/>
<path d="M14.0441 23.3335H11.375V24.6668H14.0441V23.3335Z" fill="#4985FF"/>
</g>
<defs>
<clipPath id="clip0">
<rect width="40.0359" height="40" fill="white" transform="translate(0.03125)"/>
</clipPath>
</defs>
</svg>
