<svg width="40" height="40" fill="none" xmlns="http://www.w3.org/2000/svg"><path d="M37.778 27.778c-2.667 0-5.334-.445-8-1.334-.667-.222-1.556 0-2.222.445l-4.89 4.889C16.446 28.667 11.334 23.333 8 17.11l4.889-4.889c.667-.666.889-1.555.444-2.222-.666-2.444-1.11-5.111-1.11-7.778C12.222.89 11.332 0 10 0H2.222C.89 0 0 .889 0 2.222 0 23.112 16.889 40 37.778 40 39.11 40 40 39.111 40 37.778V30c0-1.333-.889-2.222-2.222-2.222zM35.556 20H40C40 8.889 31.111 0 20 0v4.444c8.667 0 15.556 6.89 15.556 15.556zm-8.89 0h4.445c0-6.222-4.889-11.111-11.111-11.111v4.444c3.778 0 6.667 2.89 6.667 6.667z" fill="#C7150C"/></svg>