<svg width="29" height="37" fill="none" xmlns="http://www.w3.org/2000/svg"><path d="M23.956 12.6h-13.87v2.869a3.108 3.108 0 00-1.81 1.216 3.745 3.745 0 00-.71 2.214v8.4c0 .927.331 1.817.922 2.474.592.656 1.393 1.025 2.23 1.025h12.608c.836 0 1.638-.369 2.229-1.025.591-.657.923-1.547.923-2.475v-8.4c0-.806-.25-1.588-.71-2.213-.46-.625-1.1-1.055-1.812-1.216v-1.47c1.05.168 2.01.75 2.704 1.64.695.89 1.078 2.027 1.08 3.204v6.355H29v-6.3c.006-1.555-.506-3.058-1.436-4.22-.931-1.163-2.216-1.903-3.608-2.079zm-12.608 1.399h11.348v1.4H11.348v-1.4zm13.87 4.9v8.4c0 .556-.2 1.09-.555 1.484a1.801 1.801 0 01-1.337.615H10.717c-.501 0-.982-.221-1.337-.615a2.223 2.223 0 01-.554-1.485v-8.4c0-.556.2-1.09.554-1.484a1.801 1.801 0 011.337-.615h12.609c.502 0 .983.221 1.337.615.355.394.554.928.554 1.485z" fill="#000"/><path d="M16.391 18.199h-5.043v1.4h5.043v-1.4z" fill="#000"/><path d="M26.478 32.198H6.304V7h2.522c.06 1.469.562 2.874 1.425 3.99l.202.21H23.59l.189-.21c.992-1.309 1.505-2.982 1.437-4.69V2.8c0-.743-.265-1.455-.738-1.98C24.006.295 23.364 0 22.696 0H2.522c-.67 0-1.31.295-1.783.82A2.964 2.964 0 000 2.8v33.597h29v-1.4c0-.742-.266-1.454-.739-1.98-.473-.524-1.114-.82-1.783-.82zm-25.217 2.8V2.8c0-.371.133-.728.37-.99a1.2 1.2 0 01.89-.41h20.175c.334 0 .655.147.891.41.237.262.37.619.37.99v3.5a6.296 6.296 0 01-.921 3.5H11.007a6.281 6.281 0 01-.92-3.5v-.7H5.043v27.998h21.435a1.2 1.2 0 01.892.41c.236.262.37.618.37.99H1.26z" fill="#000"/></svg>