<svg width="16" height="16" fill="none" xmlns="http://www.w3.org/2000/svg"><path d="M15.543 2.187a.603.603 0 00-.853 0L7.456 9.4l-2.61-2.834a.603.603 0 00-.888.816l3.036 3.297a.602.602 0 00.869.018L15.54 3.04a.603.603 0 00.002-.853z" fill="url(#paint0_linear)"/><path d="M15.397 7.397a.603.603 0 00-.603.603A6.802 6.802 0 018 14.794 6.802 6.802 0 011.206 8 6.802 6.802 0 018 1.206.603.603 0 108 0C3.589 0 0 3.589 0 8s3.589 8 8 8 8-3.589 8-8a.603.603 0 00-.603-.603z" fill="url(#paint1_linear)"/><defs><linearGradient id="paint0_linear" x1="8" y1="0" x2="8" y2="16" gradientUnits="userSpaceOnUse"><stop stop-color="#FAE49E"/><stop offset="1" stop-color="#F3B02C"/></linearGradient><linearGradient id="paint1_linear" x1="8" y1="0" x2="8" y2="16" gradientUnits="userSpaceOnUse"><stop stop-color="#FAE49E"/><stop offset="1" stop-color="#F3B02C"/></linearGradient></defs></svg>