<svg width="23" height="24" fill="none" xmlns="http://www.w3.org/2000/svg"><path d="M11.51 9.945c1.099-.004 1.973-.924 1.97-2.073-.005-1.148-.88-2.062-1.98-2.063-1.107-.002-1.992.93-1.984 2.089.009 1.144.893 2.052 1.995 2.047z" fill="#B2B2B2"/><path d="M11.5 0C5.149 0 0 5.373 0 12s5.149 12 11.5 12S23 18.627 23 12 17.851 0 11.5 0zm.017 3.65c2.24.006 4.037 1.918 4.026 4.28-.011 2.31-1.839 4.18-4.075 4.173-2.213-.008-4.029-1.923-4.016-4.236.013-2.339 1.83-4.224 4.065-4.218zm4.536 10.113a4.853 4.853 0 01-1.753 1.183c-.626.253-1.312.38-1.991.465.103.117.151.174.215.24.921.967 1.847 1.929 2.766 2.898.313.33.378.74.206 1.124-.189.42-.61.696-1.024.666-.262-.019-.467-.154-.648-.345-.696-.73-1.405-1.448-2.085-2.192-.2-.216-.294-.175-.47.013-.7.752-1.41 1.492-2.125 2.228-.321.33-.704.39-1.076.201a1.141 1.141 0 01-.629-1.046c.014-.287.149-.506.338-.702.912-.95 1.821-1.903 2.731-2.855.06-.063.117-.13.204-.229-1.24-.135-2.36-.453-3.317-1.235-.12-.097-.242-.191-.35-.3-.42-.42-.462-.902-.13-1.397.284-.424.76-.538 1.255-.294.096.047.188.106.275.17 1.785 1.28 4.237 1.314 6.03.056.177-.14.367-.257.587-.316.427-.115.826.05 1.055.44.262.446.26.88-.064 1.227z" fill="#B2B2B2"/></svg>