<svg width="23" height="24" fill="none" xmlns="http://www.w3.org/2000/svg"><path d="M11.5 0C5.149 0 0 5.373 0 12s5.149 12 11.5 12S23 18.627 23 12 17.851 0 11.5 0zm5.833 13.298c.536.546 1.104 1.06 1.585 1.663.213.267.414.542.567.852.218.443.02.928-.358.954H16.77c-.609.052-1.093-.204-1.501-.638-.326-.346-.629-.716-.942-1.074a2.239 2.239 0 00-.425-.393c-.32-.218-.6-.152-.784.199-.188.356-.23.75-.248 1.147-.026.58-.193.731-.75.759-1.192.058-2.322-.13-3.372-.757-.927-.553-1.644-1.333-2.269-2.216-1.217-1.722-2.149-3.611-2.986-5.555-.189-.438-.05-.672.412-.681a62.818 62.818 0 012.307-.001c.313.005.52.192.64.5a15.158 15.158 0 001.563 3.023c.17.25.344.5.591.678.273.195.481.13.61-.187.082-.202.118-.418.136-.635.06-.742.068-1.483-.038-2.222-.066-.462-.315-.76-.756-.848-.225-.045-.192-.131-.083-.266.19-.231.368-.375.723-.375h2.662c.42.086.514.282.57.723l.003 3.087c-.005.17.082.676.376.788.235.081.39-.116.531-.271.639-.707 1.093-1.541 1.5-2.405.18-.38.335-.775.486-1.17.112-.292.286-.435.602-.43l2.563.003c.076 0 .152 0 .227.014.432.077.55.271.417.71-.21.692-.62 1.267-1.019 1.844-.428.618-.884 1.214-1.308 1.835-.39.567-.36.852.124 1.345z" fill="#B2B2B2"/></svg>