<svg width="24" height="24" fill="none" xmlns="http://www.w3.org/2000/svg"><path fill-rule="evenodd" clip-rule="evenodd" d="M20.503 3.488A11.901 11.901 0 0012.05 0C5.463 0 .103 5.335.1 11.892c0 2.096.55 4.142 1.595 5.945L0 24l6.335-1.654a11.983 11.983 0 005.71 1.448h.005c6.586 0 11.947-5.335 11.95-11.893a11.79 11.79 0 00-3.497-8.413zM12.05 21.785h-.004a9.956 9.956 0 01-5.055-1.378l-.363-.214-3.759.982 1.004-3.648-.237-.374a9.825 9.825 0 01-1.518-5.26c.002-5.45 4.458-9.884 9.936-9.884a9.888 9.888 0 017.022 2.898 9.802 9.802 0 012.907 6.993c-.003 5.45-4.458 9.885-9.933 9.885zm5.448-7.403c-.298-.149-1.766-.867-2.04-.967-.274-.099-.473-.148-.672.15-.199.296-.771.966-.945 1.164-.175.199-.348.223-.647.075-.299-.15-1.26-.463-2.401-1.475-.888-.788-1.487-1.761-1.661-2.059-.174-.297-.002-.443.13-.606.324-.4.647-.818.747-1.017.1-.198.05-.372-.025-.52-.075-.149-.672-1.612-.92-2.207-.243-.579-.489-.5-.672-.51-.174-.008-.373-.01-.573-.01-.199 0-.522.074-.796.372-.274.297-1.045 1.016-1.045 2.479 0 1.462 1.07 2.875 1.22 3.074.149.198 2.105 3.2 5.1 4.486.712.307 1.268.49 1.702.627.716.226 1.366.194 1.88.117.575-.085 1.767-.719 2.016-1.413.25-.694.25-1.289.174-1.413-.074-.124-.273-.198-.572-.347z" fill="url(#paint0_linear)"/><defs><linearGradient id="paint0_linear" x1="12" y1="0" x2="12" y2="24" gradientUnits="userSpaceOnUse"><stop stop-color="#FAE49E"/><stop offset="1" stop-color="#F3B02C"/></linearGradient></defs></svg>