<svg xmlns="http://www.w3.org/2000/svg" viewBox="0 0 600 600" width="600" height="600">
    <path class="nucleus" d="m 336.73469,213.72913 c -16.51848,-13.36778 -22.5432,-8.92114 -28.3859,-7.23562 -8.03504,4.0455 -9.12023,10.68499 -11.13172,15.58441 -3.15143,8.53047 2.64338,18.19482 5.56586,26.71614 12.05022,15.90448 23.51269,15.53057 27.82932,16.141 8.04385,-1.01293 14.61613,-6.73487 20.0371,-16.141 0.97868,-7.58302 0.88616,-15.27316 -3.33952,-23.37662 -3.52505,-5.28202 -7.05009,-9.54571 -10.57514,-11.68831 z" />
    <path class="mitochondria" d="m 437.44853,121.22705 c -9.85338,3.1071 -11.92901,9.87433 -12.98768,17.12012 -2.45826,11.42191 2.83437,18.41474 7.47775,25.77857 9.79648,9.95376 19.26093,18.24743 28.53353,25.58178 5.05979,2.9706 10.49609,5.8157 17.12012,8.26489 5.98342,-0.33018 12.20676,1.499 17.71047,-3.14853 2.18046,-4.36767 2.91926,-9.2159 0.39357,-15.15229 -4.36744,-6.49384 -9.29446,-12.98767 -14.16838,-19.48151 l -10.62628,-18.30082 c -2.42658,-3.54182 -7.03013,-8.53495 -12.59411,-14.16837 -7.151,-4.34266 -14.22645,-7.85426 -20.85899,-6.49384 z" />
    <path class="centriole" d="m 412.15213,192.30056 c -3.05757,-1.60129 -4.04142,2.4129 -2.36549,3.47866 -2.34522,2.49581 -1.76602,4.08417 0.69574,5.84416 -0.63336,1.20317 -0.62034,2.46511 2.78293,4.03525 l 18.50649,18.36734 c 1.28116,-0.0288 2.45871,0.0459 4.45269,-0.69573 1.55562,-1.08816 3.11929,-2.16828 4.31354,-3.61781 1.31731,-1.91097 2.11198,-3.56062 1.94806,-4.73098 l -13.63637,-13.77551 -8.62708,-6.95733 -3.61782,-3.33952 c -2.83253,-1.32533 -3.3582,0.22251 -4.45269,1.39147 z" />
    <path class="centriole" d="m 423.7013,230.70501 c -3.81196,-0.68987 -3.71582,1.97006 -2.36549,5.70501 -0.0123,6.06138 2.32938,6.06954 4.87013,5.56586 1.79774,2.66875 6.93175,2.96553 6.53989,-2.36549 3.40039,-0.61457 4.98395,-2.26733 3.20037,-5.84416 0.97433,-4.27981 -0.2836,-6.47618 -4.87013,-5.56586 -5.22348,-2.85208 -6.53893,-0.49346 -7.37477,2.50464 z" />
    <ellipse class="lysosomes-y" rx="10.1577" ry="10.435993" cx="209.55473" cy="131.21521" />
    <ellipse class="lysosomes-b" rx="8.6270876" ry="8.9053802" cx="79.313538" cy="185.48238" />
    <ellipse class="lysosomes-y" rx="10.505566" ry="10.505566" cx="105.40352" cy="251.08998" />
    <ellipse class="lysosomes-b" rx="8.8358068" ry="9.1836739" cx="167.1846" cy="302.36548" />
    <ellipse class="lysosomes-y" rx="10.088126" ry="10.018553" cx="124.32745" cy="442.20779" />
    <ellipse class="lysosomes-b" rx="8.348793" ry="9.1836729" cx="271.47495" cy="456.95731" />
    <ellipse class="lysosomes-y" rx="10.296846" ry="10.435992" cx="316.14102" cy="471.98514" />
    <ellipse class="lysosomes-y" rx="10.232714" ry="10.232715" cx="421.31232" cy="312.89368" />
    <ellipse class="lysosomes-b" rx="8.4183664" ry="9.1836739" cx="538.14935" cy="380.98331" />
    <path class="mitochondria" d="m 125.09276,467.25417 c 2.16694,-6.46962 5.0257,-13.02949 15.58442,-20.59369 l 31.44712,-7.79221 24.35065,-7.37476 c 4.80197,-0.71182 10.33687,-4.36253 18.64564,-0.41744 3.62684,5.39112 3.01013,7.66008 2.78294,12.10575 -0.40096,3.90599 -1.77913,7.22566 -4.03526,10.01855 -2.03737,3.94249 -5.91812,7.88497 -10.15769,11.82746 l -25.18553,14.47124 c -6.53955,3.23159 -12.7708,6.09007 -18.5065,8.3488 -6.40074,0.9545 -12.80148,0.4359 -19.20222,-1.94806 -4.27055,-1.48084 -8.1963,-3.30648 -10.99258,-6.26159 -3.63356,-3.33703 -5.90009,-7.19984 -4.73099,-12.38405 z" />
    <path class="mitochondria" d="m 294.29499,424.95362 c 2.12453,-3.3977 3.99464,-6.94078 8.62709,-8.90538 3.61759,-1.76688 8.86306,-2.49784 16.55844,-1.66976 6.10732,0.89184 12.17786,1.75303 20.45455,4.45269 7.89853,2.24499 16.16708,4.99876 26.99443,11.27087 5.5277,5.57484 9.16217,10.60875 12.10575,15.44527 1.09402,4.29913 1.93858,8.07132 2.64379,11.54916 -0.98984,3.32371 -2.58931,6.03778 -4.31355,8.62709 -2.0561,1.34873 -3.91968,2.75757 -9.32282,3.06123 -5.06448,-0.11262 -10.23037,-0.34694 -17.11503,-2.64379 l -33.53432,-20.73284 -12.94063,-7.37477 c -3.29313,-2.37612 -11.80624,-8.36069 -10.1577,-13.07977 z" />
    <path class="mitochondria" d="m 483.10218,352.44703 c 2.62889,-9.4771 5.17039,-18.97605 9.83914,-27.94318 1.69091,-1.50867 2.82273,-3.01734 6.49384,-4.52601 4.3902,1.26015 8.3281,3.87723 12.20055,6.69062 3.99162,7.14978 6.63319,14.29957 7.47775,21.44935 -0.006,12.59411 -0.54107,25.18822 -3.14853,37.78233 -1.64528,7.63661 -3.74026,12.12524 -5.90349,16.1362 -4.09819,5.83964 -9.02881,10.68037 -15.74264,13.38124 -4.4044,2.50069 -9.24503,2.38402 -14.16837,1.77105 -3.36442,-1.9379 -6.40854,-5.47726 -9.2488,-10.03593 -2.82505,-4.68403 -3.40208,-10.01034 -2.55818,-15.74264 1.42848,-13.21026 6.80004,-26.16912 14.75873,-38.96303 z" />
    <path class="mitochondria" d="m 130.66389,179.47481 c -4.71025,13.48032 -7.81692,27.64789 -8.85524,42.7019 -0.88504,9.83915 -0.72984,19.67829 2.55818,29.51744 4.39226,9.65595 7.63662,10.70269 11.01985,12.7909 4.11273,2.03519 8.38603,3.38799 14.56194,-3.34531 5.37696,-10.39075 10.32814,-20.70625 14.56194,-30.89493 l 14.9555,-33.05954 c 1.74515,-4.76538 3.63691,-9.04206 0.78713,-29.12387 -1.30998,-7.68838 -6.62732,-12.12078 -16.33298,-12.98768 -11.68665,-0.13321 -25.12367,10.39498 -33.25632,24.40109 z" />
    <path class="endoplasmic" d="m 90.520163,207.61477 c 4.037064,-3.97985 8.406535,-3.93201 9.085781,1.3676 -1.286027,5.26141 -1.936917,9.3917 -3.575858,15.35895 -0.576437,7.60894 -2.496958,15.21789 -4.919574,22.82683 -5.191561,6.22937 -8.804408,5.61765 -12.987675,7.47775 l -4.132443,29.32066 -1.37748,20.26865 c 0.544967,1.17765 1.929353,1.68376 4.329225,1.37748 l 1.574263,-29.71423 c -1.065994,-0.828 -1.970907,-1.89762 -1.574263,-4.91957 1.639858,-2.18721 3.279716,-3.40688 4.919574,-3.73888 3.641677,0.23286 5.234451,4.22205 6.690621,8.46167 l -0.590349,20.46542 1.37748,11.41342 c 1.5879,1.21819 3.02266,2.01525 3.148528,-0.78714 l 0.196783,-21.05577 c 0.962335,-7.22991 2.49018,-9.91178 3.542093,-15.34907 1.451608,-1.94224 3.521287,-2.03026 5.706711,-1.77105 2.37457,1.29613 3.40736,2.86062 3.93565,4.52601 l -2.95174,14.16837 -0.59035,21.05578 0.19678,21.25256 c 0.30896,2.55818 -0.23345,5.11635 1.77105,7.67453 1.04951,1.32364 2.09902,0.66305 3.14853,0.19679 l 1.57426,-6.29706 c 2.94685,-0.77 5.46945,-0.0551 7.67454,1.77105 -0.0834,3.73888 0.31768,7.47775 -0.78713,11.21663 l 0.19678,7.67453 c 1.22654,0.70599 0.0642,2.82216 1.38304,2.60301 1.48481,-0.24674 5.50542,-1.958 6.09471,2.51335 l -0.59035,9.83915 1.41124,11.1491 c 3.57015,1.73034 7.09008,1.33616 6.2633,-4.2617 l 0.98391,-16.92333 0.59035,-15.15229 c 2.15692,-4.16321 4.77657,-6.47552 7.67454,-7.67454 3.06385,-0.69546 4.84669,0.98809 5.31314,5.11636 -3.77802,6.23146 -3.73753,12.46292 -4.32923,18.69438 l 0.78713,12.20055 c -0.69859,4.12025 -1.07675,8.33206 0.78714,13.18445 l 0.98391,9.2488 c 1.93584,3.46759 3.80094,6.89476 8.26488,11.80698 l 6.88741,9.83915 c -0.25045,6.5823 -3.39088,4.97632 -5.70671,5.70671 -5.70899,-2.50251 -8.75741,-8.72981 -12.79089,-13.57803 l -6.29705,-11.61019 -0.19679,-7.47776 c -1.84457,-0.18885 -2.00866,-0.24928 -4.20985,-0.0815 -1.98526,2.19178 -0.33692,4.38356 0.47098,6.57534 0.90927,2.99291 1.32987,6.08355 0.39356,9.44558 -1.16968,4.24209 -3.66692,3.17398 -6.29705,1.57427 l -6.88741,-13.18446 -2.78872,-20.4078 -0.55659,-8.12573 -1.77104,19.08795 -1.37748,8.85523 7.28097,10.82306 2.95174,8.26489 8.0681,9.2488 3.14853,3.73887 5.11636,0.59035 c 1.02761,2.2958 1.76057,4.59161 0.59034,6.88741 -2.41225,1.83885 -3.33499,1.69169 -4.72279,2.16461 -2.83911,1.23146 -9.80682,-6.31036 -15.34907,-10.82306 l -8.65845,-14.36516 -7.30075,-12.17667 -2.30988,-0.38584 c -0.653938,2.21338 -0.482966,4.01431 -0.425299,5.87189 l 4.329229,7.87132 1.18069,5.7067 9.05202,8.85524 c 0.79215,3.5162 2.05238,7.676 0,7.28097 -3.29722,3.60715 -5.87944,1.11483 -8.46167,-1.37749 -3.85156,-4.46041 -8.627709,-8.92083 -10.429495,-13.38124 l -5.116357,-15.74263 -0.983914,-5.70671 c -2.377046,-7.04796 -2.045769,-13.55426 -2.754962,-20.26865 v -12.00376 c 0.438985,-3.64346 1.434007,-6.62978 5.903489,-5.50992 3.594053,3.33925 3.324073,4.96115 3.738876,6.8874 l 0.983915,21.25256 c 2.346481,1.05242 4.705088,2.26244 6.690618,-1.37748 v -24.79465 c 1.48478,-2.51317 1.57333,-6.14334 1.21446,-10.13143 l -8.888993,-0.88842 c -3.154334,-6.48571 -2.361406,-18.49758 -3.542093,-27.74639 -3.260777,-2.06114 -3.744619,1.43159 -4.919574,3.54209 -0.269947,7.04214 0.272832,16.25154 -0.983915,20.66221 -3.553652,3.59411 -6.193596,3.07653 -8.264884,0 0.379051,-5.69197 -0.637889,-15.59793 -2.083103,-26.03298 0,0 0.313428,-3.22221 -0.742251,-3.50824 -2.685826,-0.72771 -6.942416,1.87104 -10.359105,0.22056 -1.780628,-4.72279 -0.874525,-9.44558 -0.983915,-14.16837 -1.494791,-0.26618 -3.252055,0.78001 -5.116357,2.36139 -1.94221,2.81474 -2.003164,10.01908 -2.951744,15.15229 -0.852726,5.15834 -1.705453,9.88306 -2.558179,11.01985 -2.033424,3.34502 -4.066848,2.14137 -6.100272,1.57426 -2.519905,-1.96783 -2.359951,-3.93566 -2.361395,-5.90349 l 1.771046,-14.75872 c 0.258353,-4.66373 2.068134,-9.06888 4.544501,-13.36294 3.299237,-1.98131 6.160276,-4.07218 10.853433,-5.70501 l 3.339517,-1.53061 -0.139146,-14.74954 2.226345,-3.61781 c -0.167797,-8.41433 1.616525,-17.67845 3.200371,-26.85529 l 1.669758,-9.74026 c 2.004307,-0.58322 4.377924,-2.93246 7.792208,-0.69573 0.589773,1.42452 1.191312,2.83335 0.695733,5.70501 l 0.41744,4.59184 c 1.461895,-1.01904 2.986425,-1.93786 2.643785,-5.84416 l 3.896104,-12.10575 c 0.494585,-4.5128 0.523305,-7.70566 3.136118,-18.22011 z" />
    <path class="endoplasmic" d="m 207.05009,206.7718 c 1.558,-0.67565 3.08693,-1.24954 3.61781,1.66976 0.057,3.95815 -1.72023,12.92948 -1.06542,21.95139 -0.93225,11.80596 7.69406,34.55213 10.2491,42.89091 3.57556,11.6694 27.16284,41.09476 27.27273,40.07421 l 14.19295,11.9666 c -0.14992,-1.44862 -0.26505,-2.86244 -1.94806,-5.84415 -6.05754,-3.67324 -11.71798,-10.52332 -17.25417,-18.36735 -6.53018,-10.6679 -8.97378,-21.33581 -10.29685,-32.00371 -2.94168,-22.55416 -1.06024,-30.63896 0,-41.18738 4.33595,-8.72437 7.73589,-18.22875 15.02783,-24.4898 6.21521,-6.02283 12.43043,-10.22789 18.64564,-13.63636 4.72948,-1.11167 13.04364,-5.80802 6.95733,3.8961 -4.22133,3.97031 -8.85536,8.94293 -16.69759,21.70686 -5.8823,5.17301 -7.32382,12.88361 -9.74026,20.03711 -0.45198,8.228 -0.47404,16.11207 1.66976,22.26345 0.74485,8.74621 3.00377,14.96899 5.28757,21.15028 2.7966,6.89321 6.32109,13.6651 12.2449,20.03711 6.54964,9.55405 15.67262,15.4319 25.88126,19.75881 15.00384,5.22996 29.47653,3.02382 43.97032,1.11317 15.06553,-3.22434 24.83218,-10.78413 34.23005,-18.64564 9.78048,-9.52272 18.57944,-21.33566 20.59369,-48.97959 4.13278,-23.89741 -5.97031,-42.40827 -21.15027,-58.99815 -14.22291,-11.04815 -27.10765,-13.39822 -40.35251,-18.08905 -5.02877,-2.98368 -5.5618,-6.23182 -1.66976,-9.74026 6.0535,0.003 11.23255,0.38086 13.63637,1.94805 6.59463,1.89178 16.43021,5.9442 30.89053,13.07978 9.12287,6.67105 15.66364,13.98761 20.5937,21.70686 7.38493,9.60474 10.32145,19.65431 12.52319,29.77737 1.97469,11.90535 2.03365,25.13697 -2.78293,41.74397 -4.73098,18.57832 -9.46197,22.39679 -14.19295,31.44713 -7.97211,9.65875 -16.92353,17.35888 -26.99444,22.82003 l -16.141,9.18368 -14.74954,7.7922 c 6.90949,-1.20722 13.2308,-1.85114 24.21151,-6.95732 12.10492,-6.57615 21.27551,-13.80438 28.66419,-21.42858 9.15148,-9.08429 16.74694,-19.53009 21.70686,-32.282 2.55232,-11.30469 5.5644,-22.26455 6.12245,-35.06494 0.40077,-6.86872 2.32908,-8.50014 6.40075,-2.78293 3.87451,10.11132 3.24421,20.22264 1.39146,30.33396 -2.67731,13.09778 -8.47477,21.82733 -13.63636,31.44712 -8.23415,12.11669 -20.49997,22.21755 -32.83859,32.282 -19.2851,15.04844 -35.55686,17.54133 -51.76253,19.75882 -15.99813,2.73818 -31.55176,0.14244 -47.03154,-3.33952 -15.16499,-5.20399 -29.66072,-11.26845 -41.18738,-21.15028 -12.43693,-7.07851 -17.41389,-20.26062 -24.4898,-31.72542 -5.22072,-12.93631 -9.33149,-26.05761 -11.41001,-39.51762 -1.27835,-6.13321 -0.79632,-9.18577 0,-11.68831 2.78836,-2.36252 3.99212,7.95169 5.84415,13.07977 3.88639,11.29022 7.89144,22.28379 12.81242,30.98751 6.11035,9.94011 12.52283,18.9738 19.67829,25.77857 6.7892,5.65735 13.20237,11.62807 23.02361,14.75872 l 19.28473,5.11636 -28.53353,-14.56194 c -13.16591,-7.60286 -20.81749,-18.71483 -28.33674,-29.91101 -6.98713,-11.04082 -11.2726,-23.88275 -15.15229,-36.9952 -2.33496,-11.73081 -3.43712,-22.96849 -3.14853,-33.64988 z" />
    <path class="endoplasmic" d="m 211.99474,191.72709 c -1.89801,4.07993 2.05845,8.62405 7.02196,7.80909 6.6648,-5.58734 12.75181,-10.16353 18.36735,-13.91466 4.67892,-2.53121 2.9846,-10.58588 4.17439,-16.141 -1.88748,-3.20236 16.5062,-6.44071 25.04639,-12.2449 6.16463,-2.94537 13.33329,-5.57368 14.74953,-10.01855 0.62645,-3.01698 1.59908,-3.1492 1.50384,-12.18028 9.19525,-1.84256 16.7075,-4.40641 24.09913,-7.02195 l 36.4564,-0.83488 c 5.88537,0.81839 12.92815,1.96096 16.22541,3.81459 -1.47288,1.68142 -17.1753,0.59598 -27.07884,0.6381 -12.20723,2.0825 -23.50452,4.69588 -25.04638,8.34879 -1.43049,5.00669 0.0956,7.19754 4.17439,6.95733 l 12.80149,-0.55658 c 2.18456,2.69204 -21.26847,4.06468 -28.10761,8.62708 -12.49868,5.36942 -28.99816,15.3644 -32.282,14.74954 -4.15661,1.60278 -9.51177,2.57104 -9.46197,6.40074 2.34609,6.62969 6.43077,5.80821 10.57514,4.73099 4.06772,-0.0189 6.90065,-0.0594 8.93866,-0.30937 2.54065,-0.31162 2.69221,-3.61372 5.53258,-6.09138 l 11.41002,-5.28757 c 0.97497,0.7229 3.08712,1.11219 1.88815,2.02476 -2.94087,2.23837 -10.75787,4.82099 -13.29817,7.15892 -3.42552,9.83682 2.28222,8.06794 3.27489,8.59332 7.27089,-2.95721 11.4185,-5.91441 16.20563,-8.87162 6.22792,2.74673 10.18335,-2.56092 18.51349,-4.74786 1.09912,-3.7718 2.30109,-6.79273 -1.25931,-6.94045 -5.9878,-0.46382 -9.63946,-0.92764 -13.91466,-1.39146 4.12617,-5.77632 15.30576,-4.89109 23.65492,-6.67904 l 15.02783,3.06123 c 4.79458,-0.75897 5.04694,-3.62683 2.50463,-7.79221 -6.45229,-2.85316 -13.53444,-5.72098 -10.29684,-8.3488 0.65937,-4.84119 6.77248,-4.74803 12.80148,-4.73098 10.54166,0.38744 10.59112,5.59743 13.35807,8.0705 l -1.94805,7.23562 c -5.57149,0.83354 -5.15926,3.79926 -5.50124,5.87792 1.80523,6.57248 6.07886,6.3291 8.84076,7.20186 3.57355,3.86761 8.20763,5.08387 12.80148,6.40074 l 12.80149,13.63637 c 4.11116,2.4316 7.42805,2.39211 9.18367,-2.50464 -0.48937,-2.78293 -2.72211,-5.56587 -5.00928,-8.3488 2.29699,-1.19666 4.21321,-2.94331 4.1744,-7.51391 1.2947,-1.3591 2.39318,-3.40496 4.1744,-3.06122 1.57293,5.32005 3.46883,8.05639 5.56586,9.18367 3.68791,4.25152 7.56114,8.44128 12.80149,12.17532 4.25802,2.08655 7.1318,1.26622 8.76623,-2.15677 -1.89435,-3.66663 -5.18248,-6.86867 -8.62709,-10.01855 l -3.40909,-4.31355 c 1.22913,-1.14789 2.45826,-4.35117 3.68739,-6.95732 0.43391,3.30625 0.84564,6.57923 0.7653,9.1141 2.85251,4.97926 5.70501,6.37637 8.55752,8.34879 4.34862,2.16573 6.11786,0.3764 6.53988,-3.47866 0.65111,-3.26995 -3.65072,-6.53989 -6.67903,-9.80984 l -0.76531,-6.67903 c -0.26969,-3.34706 -1.85362,-5.91303 -6.6214,-8.60527 -1.82598,-3.9048 -5.26087,-6.73699 -8.61515,-9.62293 -15.4014,-8.57462 -14.53931,-7.60328 -18.85436,-9.67069 -6.67495,-0.13624 -6.2133,5.44663 -5.35714,6.53989 2.71212,5.07222 10.15595,5.93848 15.23655,8.90538 10.94275,9.37097 6.78306,11.4058 5.42672,12.59276 -4.15165,-4.08219 -5.16975,-4.24743 -7.44435,-5.9833 -2.72714,-0.47889 -5.56809,0.0665 -8.55751,1.94805 l -6.47031,9.3924 -12.66234,-4.31355 -4.45269,-0.20872 -2.29592,-4.03525 2.92208,-5.00927 7.72263,3.96567 c 4.02708,-1.05684 4.13691,-3.53151 5.07885,-5.705 -2.78006,-3.18006 -5.66995,-6.25028 -9.74026,-8.14008 l -4.9397,-5.28757 c 3.21125,-5.20134 5.93007,-6.95572 8.62709,-8.55751 -1.16206,-5.36175 -3.1561,-7.11825 -5.07885,-9.18368 -3.89456,0.41299 -7.08139,-0.14776 -9.67069,-1.53061 -12.30737,-0.77649 -19.89155,-1.98237 -29.63822,-2.99165 l 48.35343,-0.48701 15.58442,3.20037 c 8.10035,1.62809 9.37202,0.41089 11.41002,-0.48701 1.87754,-2.35011 2.75039,-4.78395 -1.60019,-7.65307 -4.13353,-0.64367 -7.7817,-1.49535 -10.08812,-2.92207 l -17.39333,-1.25232 h -48.21428 c -4.46349,1.66597 -6.29742,5.55696 -7.37477,10.08812 -7.64071,0.49612 -14.7415,1.05223 -20.03711,1.80891 -10.58838,2.33936 -21.48492,5.52616 -33.11865,10.74023 -7.53809,2.89642 -16.19214,7.09478 -22.33486,8.36327 -4.24232,3.18133 -6.55868,6.36265 -4.52601,9.54398 4.83765,3.02787 5.90321,0.91197 8.0681,0.29517 l 23.90913,-10.52789 c -0.29662,2.26301 -0.28579,4.52601 -2.85335,6.78902 l -32.3708,13.08606 -17.21851,8.95363 -15.34907,5.50992 c -4.1519,6.30125 -3.19369,8.62797 -0.29518,9.44558 5.36884,-2.0328 11.73557,-3.46687 15.93942,-6.19866 l 8.85524,-2.26301 c 0.17632,1.58791 0.02,3.39755 -0.59035,5.50993 -7.39509,4.34647 -12.38731,7.31546 -17.65098,12.74424 z" />
    <path class="endoplasmic" d="m 346.75325,374.16512 c -2.41677,0.90993 -2.83791,4.3144 -3.20037,7.79221 5.36269,2.41433 14.06612,1.07032 21.28942,1.39146 1.37272,0.16693 4.4127,-3.72973 9.60112,-1.94805 0.0584,5.29561 -0.54149,5.65473 -0.97403,6.67904 -3.6005,0.46382 -7.71497,0.92764 -11.82746,1.39146 l -10.1577,0.41744 c -3.39608,2.15937 -2.92999,6.06321 -1.53061,8.20965 1.90813,2.47554 16.46794,1.24258 19.55504,-0.24453 7.22326,-1.11133 14.00583,-0.8179 21.95139,-3.85535 12.95752,-4.41107 18.30377,-9.20271 26.53624,-13.85003 2.95563,-1.40651 5.03964,0.89135 6.95733,3.89611 l -11.27087,9.8794 c -7.9983,2.99089 -9.26937,6.99086 -12.38405,10.71429 0.57624,5.08091 2.60957,7.52085 7.37477,5.00927 l 5.9833,-4.31354 0.41744,3.06123 c -2.63433,3.03419 -6.08328,2.40259 -9.18367,3.33951 -4.79595,1.54091 -10.67673,2.78048 -10.99258,5.56587 0.19706,4.40255 2.48702,5.31694 5.00928,5.84415 5.19667,-0.60669 10.34259,-1.1119 16.55844,-3.75696 6.77992,-2.49042 12.91391,-6.11123 18.64564,-10.43599 l 14.47124,-12.80148 c -0.79278,-4.5369 -1.9675,-8.30989 -6.12245,-6.12245 -7.62424,2.98089 -11.05602,8.15434 -16.55844,12.2449 -2.12329,-0.0567 -2.90744,-1.45249 -3.75696,-2.78294 6.68562,-6.60782 12.92935,-13.3261 17.53247,-20.45454 1.39459,-2.31442 3.1943,-4.02117 3.61781,-7.79221 -1.20034,-2.88984 -3.01161,-4.74111 -6.81818,-3.20037 -0.73731,1.7479 -3.81187,4.16358 -6.26159,6.40074 -2.45417,-0.83056 -3.2412,-3.05039 -4.1744,-5.14842 4.82639,-8.62076 10.81663,-16.72425 13.49722,-26.2987 0.0459,-3.15352 0.23017,-6.44539 -2.78294,-6.53989 -5.64632,-1.34231 -6.32756,4.1901 -8.90538,7.09647 l -10.99257,21.15028 c -5.79448,8.99698 -13.55414,11.83894 -20.87199,16.4193 -4.56467,2.21497 -8.70478,3.72233 -12.48243,4.6256 -0.96026,-0.49135 -2.56389,-0.0895 -1.57137,-4.48646 5.9618,-2.46256 11.88111,-4.93361 16.55844,-7.65306 7.04067,-4.14172 12.72655,-8.22454 13.77551,-12.10575 1.45525,-6.50669 -2.71388,-7.13408 -4.31355,-6.40074 -6.34122,4.56621 -9.56399,9.48993 -14.61038,9.74026 -3.75294,1.58102 -7.82873,2.83918 -12.10576,3.8961 0.0985,1.46909 -1.52953,1.90232 -2.64378,2.64379 -1.60872,-0.73054 -0.2436,-2.68732 -4.60871,-1.07941 -1.67523,1.54421 -3.19397,1.66592 -5.13155,1.63599 -1.08879,-0.16896 -1.19578,-0.60568 -4.97551,-0.0408 -0.65797,1.97719 -2.79788,2.07282 -4.20816,2.54539 z" />
    <path class="endoplasmic" d="m 446.79963,332.97774 c -0.059,6.80357 3.05166,6.91567 6.2616,6.81818 l 10.71428,-11.13173 c 5.30137,2.84311 8.5448,3.62829 11.27087,3.89611 6.49824,-1.40496 8.39311,-4.72798 10.57514,-7.93136 3.62051,-6.30798 4.10439,-12.61595 4.45269,-18.92393 0.51273,-2.62127 1.12926,-5.1271 4.73099,-4.31355 l 4.87013,1.66976 c -2.57644,5.1933 -2.27059,8.58517 -1.94805,11.96661 4.33388,3.13485 6.69748,3.068 8.0705,1.39146 2.66237,-4.11345 3.68782,-7.7592 3.75695,-11.13172 l 0.83488,-19.48052 -0.69573,-20.17625 c -1.5123,-5.21342 -2.71963,-10.3506 -7.09647,-16.28015 -4.87473,-0.72777 -6.51295,2.05068 -6.95733,6.12245 l 5.00927,15.16697 -0.13914,17.25418 -0.55659,4.87013 -5.42672,-2.0872 1.53062,-12.80149 c -2.27273,-4.24326 -4.54546,-4.71695 -6.81819,-4.17439 -3.99679,5.31155 -3.87575,10.21132 -4.31354,15.16697 -2.37212,6.51074 -3.36867,13.29659 -3.8961,20.17626 l -4.59184,12.52319 c -2.38455,0.59471 -3.86624,-0.61631 -5.14842,-2.22635 l 4.03525,-14.74953 c 1.80035,-5.63039 3.77762,-11.15968 3.06122,-18.22821 l -1.25232,-36.1781 -0.69573,-20.45455 c -2.65699,-4.53895 -8.01139,-1.09465 -9.46197,1.39147 -0.60348,36.13279 -1.84613,16.0192 -2.78293,22.82003 -1.03322,-9.48715 -2.05394,-18.98366 -5.9833,-26.2987 -2.13927,-2.83589 -7.74156,-2.85531 -7.93135,2.0872 0.76473,4.70271 1.1695,9.85538 3.33951,12.80149 1.01582,5.70584 0.24057,15.35202 -0.55658,25.04638 l -0.13915,13.77551 -5.56586,11.54916 c 1.95207,5.28764 4.73038,7.40801 8.90538,4.1744 3.41544,-4.78017 7.03249,-9.52674 6.12245,-15.02783 1.00857,-6.47871 0.0899,-10.54844 -0.2783,-15.30612 l 6.67904,0.27829 -0.27829,27.27273 c -2.05586,8.4474 -5.20743,15.06864 -8.3488,21.70686 -2.58713,4.72585 -7.85201,10.79058 -13.35807,16.97589 z" />
    <path class="endoplasmic" d="m 449.55068,442.57363 c -2.05392,2.69493 -3.82018,5.41041 -2.263,8.36327 4.75662,2.67466 10.67367,1.09438 16.1362,1.1807 l 6.00188,9.15041 c 5.8009,1.36908 10.92495,1.38446 15.15229,-0.39357 l 3.4437,-2.85335 -0.88552,4.91958 c -4.68309,1.38335 -4.96376,4.70701 -5.21475,6.78901 1.23316,3.90159 3.57075,4.04813 6.10027,3.54209 4.73054,-1.37674 6.2926,-4.73378 9.15041,-7.28097 0,0 0.4964,-8.00916 0.88552,-8.0681 1.31071,-0.19853 9.99324,-5.88916 9.15041,-5.70671 0.46972,-2.54061 1.5339,-5.20011 -1.77105,-6.98579 -4.35215,-1.17321 -7.46627,1.67717 -10.82306,3.73887 l -11.70859,0.68875 c -1.50375,1.56196 -2.96575,3.15872 -6.00188,3.4437 -1.58633,-0.1117 -3.0305,-0.83942 -3.83726,-4.32923 3.47275,-1.67774 5.10339,-1.25022 6.78901,-0.88552 l 1.77105,-2.06622 c 3.01006,0.0669 8.74658,-1.8023 10.03593,-1.77105 l 4.72279,-3.73888 c 0.19049,-3.99412 -0.14231,-7.39517 -3.83727,-6.98579 -2.31471,-0.80212 -7.10847,1.80444 -11.41341,3.73888 -4.11793,-0.35746 -4.92949,0.66274 -6.00188,1.57426 -5.32046,1.01488 -7.36577,2.84855 -10.82307,4.32922 -3.34303,-0.32825 -9.48152,-0.30708 -14.75872,-0.39356 z" />
    <path class="endoplasmic" d="m 368.04267,485.55195 c -2.47835,3.26383 -0.54479,4.99307 1.11318,6.81818 3.22855,0.98651 6.11013,1.10557 8.97495,1.18275 3.75985,-1.00797 8.21155,-1.64966 8.97495,-4.24398 1.72136,-2.71904 2.89293,-5.32812 3.68739,-7.86178 0.42606,-3.32241 -0.56902,-4.00553 -1.39147,-5.00927 -2.29001,0.13782 -3.42663,-1.4929 -8.27922,2.57421 l -1.18274,4.73098 c -7.72069,0.10889 -11.22,0.77322 -11.89704,1.80891 z" />
    <path class="endoplasmic" d="m 213.01756,487.44014 c -3.71874,1.09534 -3.5305,4.71871 -2.85335,8.65845 2.64111,0.65815 9.38541,0.73014 15.54585,0.88553 5.13124,-0.70168 7.37302,-2.76205 10.03593,-4.6244 l 9.83915,-7.77293 9.2488,-3.14853 c 0.75267,-2.72216 1.6201,-5.44433 -0.68874,-8.16649 -3.35078,-0.10389 -6.74015,-0.47785 -9.83915,1.1807 -4.35967,2.54575 -10.375,6.91272 -12.39733,6.8874 -0.72484,1.90032 -1.7385,3.85048 -6.19866,6.39545 -3.15867,0.20794 -7.70922,0.0182 -12.6925,-0.29518 z" />
    <path class="golgi" d="m 175.60297,272.72727 c -1.86777,-0.12452 0.31654,14.5109 4.59184,15.30612 8.26601,6.96221 18.64333,1.35741 17.53246,0.41744 -0.077,-8.34188 -3.16821,-9.14811 -5.28757,-12.38404 -6.07222,-5.11191 -10.34042,-3.68897 -16.83673,-3.33952 z" />
    <path class="golgi" d="m 148.05195,296.52133 c 0,0 5.00928,5.42672 2.64378,11.27088 -2.36549,5.84415 -8.90538,2.36549 -8.90538,2.36549 0,0 -5.70501,-5.70501 -5.70501,-9.04453 0,-3.33952 0.83488,-7.93135 6.53989,-8.62709 3.84638,2.71176 4.4768,1.88067 5.42672,4.03525 z" />
    <path class="golgi" d="m 157.79221,329.08163 c -1.86984,4.76543 -1.95783,8.86267 2.0872,11.41002 3.2615,5.74604 5.32764,2.52692 7.93135,3.33952 2.78066,-1.53678 4.84675,-3.39114 4.31355,-6.40074 l -6.12245,-8.20965 c -2.86387,-0.55568 -6.34714,-3.58894 -8.20965,-0.13915 z" />
    <path class="golgi" d="m 284.74495,392.00041 c 0.55002,-2.8101 2.41185,-4.39583 6.8874,-3.5421 4.66028,2.91895 5.82538,5.8379 8.0681,8.75685 -0.39356,2.23021 -0.78713,4.46041 -1.18069,6.69062 -2.87629,1.48894 -5.28963,2.05201 -7.37936,1.96783 -3.7529,-2.84918 -4.43945,-5.01696 -6.00188,-7.37937 -0.7164,-2.16461 -0.98597,-4.32922 -0.39357,-6.49383 z" />
    <path class="golgi" d="m 262.91744,427.17996 c 0.63172,2.43507 1.18457,4.87013 2.71336,7.3052 4.64256,0.39135 8.66665,0.5353 12.38404,0.55658 1.80518,-2.96995 3.4933,-5.98672 4.38312,-9.32282 -2.33244,-1.87848 -3.80831,-3.75695 -7.65306,-5.63543 -4.74232,2.13697 -8.36661,4.59337 -11.82746,7.09647 z" />
    <path class="golgi" d="m 234.04453,413.75232 c 1.43045,-3.73381 4.61254,-1.96249 7.23562,-1.94805 2.87744,2.06401 5.37344,4.12801 6.95733,6.19202 0.43545,3.21838 0.78483,6.35069 -0.41744,7.93135 -0.37131,1.25228 -3.60479,2.09568 -6.47032,2.99165 -2.73753,-0.79789 -4.65361,-3.44402 -6.67903,-5.84415 -0.99794,-2.56502 -2.47175,-4.80287 -0.62616,-9.32282 z" />
    <path class="golgi" d="m 180.74515,393.1811 c 0.27821,-1.68114 -1.44644,-4.3637 2.65657,-4.13244 3.67667,-0.49874 6.87479,-0.0404 10.03593,0.49196 3.06132,2.71135 5.46435,5.09357 7.47776,7.28097 1.38579,3.22243 2.62359,6.29688 2.45978,7.96971 l -2.95174,1.67265 c -1.66399,0.93361 -3.88532,1.78761 -7.37936,2.45979 -3.21038,-0.83605 -4.85676,-2.10295 -6.59223,-3.34531 -3.7162,-3.66917 -5.70921,-7.77843 -5.70671,-12.39733 z" />
    <path class="golgi" d="m 182.5162,368.48484 c -1.98342,2.263 -1.84471,4.52601 -0.68874,6.78901 0.38202,1.21907 -0.25019,2.08017 13.08607,7.87132 3.93566,0.85022 7.87131,4.94817 11.80697,8.56006 2.5448,2.5776 4.89883,4.96443 7.18258,7.28097 2.31397,0.70615 4.54205,1.56259 7.87132,0.49196 0.49013,-2.25435 0.78843,-4.46074 -0.78713,-6.19866 -2.54827,-4.01549 -6.98347,-7.402 -11.01985,-10.92146 -8.32216,-3.32435 -26.01094,-16.71 -27.45122,-13.8732 z" />
    <path class="golgi" d="m 178.67893,350.18403 c -4.96958,3.7583 -2.70199,5.9433 -1.96783,8.46166 2.30203,2.70157 5.04772,4.87075 8.65845,6.00188 l 22.23648,9.74076 c 4.70257,2.32108 8.5361,5.72845 12.20054,9.34719 6.92289,7.93396 13.85436,15.8454 22.82683,18.39921 3.09504,0.35197 6.57029,1.39306 5.60831,-5.60832 -1.09781,-3.26833 -4.16598,-6.33962 -7.87132,-9.34719 -6.20703,-4.03708 -11.39005,-7.41587 -21.05578,-13.67641 -5.9862,-3.46819 -6.63898,-2.71408 -24.2043,-15.34907 -5.04802,-4.80209 -10.34085,-8.38018 -16.43138,-7.96971 z" />
    <path class="golgi" d="m 184.7792,323.9135 c -9.85542,-1.04414 -7.897,6.59619 -7.87132,7.08419 0.0524,3.64848 4.6816,8.31403 9.3472,12.98767 10.93769,8.05123 21.00831,13.50121 31.1901,19.28473 10.65126,5.52947 20.39328,13.33204 30.0094,21.44935 5.43694,6.83894 10.91225,14.09996 15.84103,15.34907 4.93268,2.50031 7.46543,0.8553 9.54397,-1.57427 0.33645,-2.24421 1.12002,-3.92951 0.49196,-7.37936 -4.52263,-3.82877 -8.57503,-6.9313 -12.6925,-10.13432 -3.20823,-1.90487 -7.8593,-5.4587 -12.88929,-9.44558 l -28.92709,-18.10403 c -5.02969,-3.22316 -10.48663,-6.2632 -13.77481,-10.23272 -5.30803,-3.84565 -13.08366,-15.64348 -20.26865,-19.28473 z" />
    <path class="golgi" d="m 187.43577,296.95423 c -3.20231,-0.95763 -6.49177,-2.35104 -8.16649,4.32923 -1.44093,7.8406 1.50874,10.34976 3.54209,13.97159 7.18182,9.11155 14.00339,15.34108 20.66222,20.26865 7.20349,5.7395 14.43827,11.47901 22.92521,17.21851 10.53505,8.28019 20.55487,14.67125 30.30458,20.07186 9.77355,5.02873 19.54711,9.54216 29.32066,10.42949 5.91839,0.16582 11.32026,-1.15334 15.15229,-6.98579 4.3145,-5.16158 3.70026,-8.21085 0.68874,-10.23271 L 274.9058,358.5473 c -12.18785,-3.08315 -23.75774,-7.77297 -34.6338,-14.26676 -7.80564,-4.55889 -14.75714,-9.97192 -20.46543,-16.62816 -5.60831,-6.18291 -11.21663,-12.4985 -16.82494,-19.97347 -5.66433,-6.1476 -10.65881,-8.7226 -15.54586,-10.72468 z" />
</svg>