<svg width="500" height="201" fill="none" xmlns="http://www.w3.org/2000/svg"><path d="M2 199s41.911-55.933 80.543-74.407c52.454-25.084 96.113 19.526 148.8-4.991 32.292-15.026 38.126-43.49 70.987-57.167 40.236-16.746 75.293 19.215 111.487-4.99 22.315-14.925 18-42.203 41.864-54.445C474 14 437.5 124.593 447.035 140.926 469.479 139.639 498 114.157 498 114.157" stroke="url(#paint0_linear)" stroke-width="5"/><path d="M2 199s41.911-55.933 80.543-74.407c52.454-25.084 96.113 19.526 148.8-4.991 32.292-15.026 38.126-43.49 70.987-57.167 40.236-16.746 75.293 19.215 111.487-4.99 22.315-14.925 18-42.203 41.864-54.445C474 14 437.5 124.593 447.035 140.926 469.479 139.639 498 114.157 498 114.157" stroke="url(#paint1_linear)" stroke-width="5"/><defs><linearGradient id="paint0_linear" x1="250" y1="3" x2="250" y2="199" gradientUnits="userSpaceOnUse"><stop stop-color="#E30000"/><stop offset="1" stop-color="#0033EA" stop-opacity="0"/></linearGradient><linearGradient id="paint1_linear" x1="492.5" y1="127.5" x2="427.5" y2="142" gradientUnits="userSpaceOnUse"><stop stop-color="#fff"/><stop offset="1" stop-color="#fff" stop-opacity="0"/></linearGradient></defs></svg>