<svg xmlns="http://www.w3.org/2000/svg" width="20" viewBox="0 0 15 15" height="20"><path d="M10.857 4.96a1.334 1.334 0 00-.322-.495 1.333 1.333 0 00-.495-.322c-.152-.06-.38-.13-.8-.148-.454-.021-.59-.026-1.74-.026s-1.286.005-1.74.025c-.42.02-.648.09-.8.149a1.334 1.334 0 00-.495.322 1.335 1.335 0 00-.322.495c-.06.152-.13.38-.149.8-.02.454-.025.59-.025 1.74s.005 1.286.025 1.74c.02.42.09.648.149.8.069.187.179.356.322.495.139.143.308.253.495.322.152.06.38.13.8.149.454.02.59.025 1.74.025s1.286-.005 1.74-.025c.42-.02.648-.09.8-.149.375-.145.672-.441.817-.817.06-.152.13-.38.149-.8.02-.454.025-.59.025-1.74s-.005-1.286-.025-1.74c-.02-.42-.09-.648-.149-.8zM7.5 9.711a2.211 2.211 0 110-4.422 2.211 2.211 0 010 4.422zm2.299-3.993a.517.517 0 110-1.034.517.517 0 010 1.034zm0 0"/><path d="M8.936 7.5a1.436 1.436 0 11-2.872 0 1.436 1.436 0 012.872 0zm0 0"/><path d="M13.918 0H1.082C.484 0 0 .484 0 1.082v12.836C0 14.516.484 15 1.082 15h12.836c.598 0 1.082-.484 1.082-1.082V1.082C15 .484 14.516 0 13.918 0zm-2.137 9.276c-.021.458-.094.771-.2 1.045a2.202 2.202 0 01-1.26 1.26c-.274.106-.587.179-1.045.2-.46.02-.606.026-1.776.026s-1.316-.005-1.776-.026c-.458-.021-.771-.094-1.045-.2a2.11 2.11 0 01-.763-.497 2.11 2.11 0 01-.496-.763c-.107-.274-.18-.587-.2-1.045-.022-.46-.027-.606-.027-1.776s.005-1.316.026-1.776c.021-.458.094-.771.2-1.045a2.11 2.11 0 01.497-.763 2.11 2.11 0 01.763-.497c.274-.106.587-.179 1.045-.2.46-.02.606-.026 1.776-.026s1.316.005 1.776.026c.458.021.771.094 1.045.2.287.109.548.278.763.497.219.215.388.476.497.763.106.274.179.587.2 1.045.02.46.026.606.026 1.776s-.005 1.316-.026 1.776zm0 0"/></svg>