<svg xmlns="http://www.w3.org/2000/svg" height="20" width="20"><path d="M10.01 7.998a2 2 0 002.002-2.02A2.006 2.006 0 0010 3.969a2.009 2.009 0 00-2.016 2.035c.008 1.115.907 2 2.027 1.995z"/><path d="M18.936 0H1.064C.476 0 0 .476 0 1.064v17.872C0 19.524.476 20 1.064 20h17.872c.588 0 1.064-.476 1.064-1.064V1.064C20 .476 19.524 0 18.936 0zm-8.919 1.865c2.276.006 4.104 1.868 4.093 4.17-.012 2.25-1.87 4.073-4.143 4.065-2.25-.008-4.095-1.873-4.082-4.127a4.124 4.124 0 014.132-4.108zm4.611 9.852a4.95 4.95 0 01-1.782 1.153c-.637.246-1.334.37-2.024.453.104.114.153.169.218.234.937.942 1.878 1.88 2.812 2.824.318.321.385.72.21 1.095-.192.41-.621.678-1.042.649-.266-.019-.474-.151-.658-.337-.708-.711-1.428-1.41-2.12-2.134-.202-.211-.299-.172-.477.012-.712.732-1.434 1.453-2.161 2.17-.327.322-.715.38-1.094.196-.403-.195-.659-.606-.639-1.019.014-.28.151-.492.343-.684.927-.926 1.852-1.854 2.777-2.781.061-.061.118-.127.207-.222-1.261-.132-2.399-.442-3.372-1.204-.12-.095-.246-.186-.356-.292-.426-.41-.469-.878-.132-1.361.288-.413.773-.524 1.276-.287.098.046.19.103.28.165 1.814 1.247 4.307 1.281 6.129.056.18-.137.373-.251.597-.308a.937.937 0 011.073.428c.267.434.264.857-.065 1.194z"/></svg>