<svg xmlns="http://www.w3.org/2000/svg" width="20" viewBox="0 0 15 15" height="20"><path d="M6.566 8.905L9.006 7.5l-2.44-1.405zm0 0"/><path d="M13.918 0H1.082C.484 0 0 .484 0 1.082v12.836C0 14.516.484 15 1.082 15h12.836c.598 0 1.082-.484 1.082-1.082V1.082C15 .484 14.516 0 13.918 0zm-1.732 7.508s0 1.52-.193 2.254a1.174 1.174 0 01-.826.826c-.733.193-3.667.193-3.667.193s-2.926 0-3.667-.2a1.175 1.175 0 01-.826-.827C2.814 9.03 2.814 7.5 2.814 7.5s0-1.52.193-2.254c.108-.402.432-.726.826-.834.733-.193 3.667-.193 3.667-.193s2.934 0 3.667.2c.402.109.718.425.826.827.201.733.193 2.262.193 2.262zm0 0"/></svg>