<svg xmlns="http://www.w3.org/2000/svg" width="20" height="20" viewBox="0 0 20 20">
	<style type="text/css">
		.st1{fill:#5384ff;stroke-linecap:round;stroke-linejoin:round;}
		.st0{stroke:#5384ff;fill:none;stroke-width:2;stroke-linecap:round;stroke-linejoin:round;}
	</style>
	<path class="st0" d="M19 -17L1 -17L1 -1L19 -1Z"/>
	<path class="st0" d="M14,1L14,5"/>
	<path class="st0" d="M6,1L6,5"/>
	<path class="st1" d="M6.53,11L5.46,11C5.21,11 5,10.78 5,10.53L5,9.46C5,9.21 5.21,9 5.46,9L6.53,9C6.79,9 7,9.21 7,9.46L7,10.53C7,10.78 6.79,11 6.53,11"/>
	<path class="st1" d="M10.53,11L9.46,11C9.21,11 9,10.78 9,10.53L9,9.46C9,9.21 9.21,9 9.46,9L10.53,9C10.79,9 11,9.21 11,9.46L11,10.53C11,10.78 10.79,11 10.53,11"/>
	<path class="st1" d="M14.53,11L13.46,11C13.21,11 13,10.78 13,10.53L13,9.46C13,9.21 13.21,9 13.46,9L14.53,9C14.79,9 15,9.21 15,9.46L15,10.53C15,10.78 14.79,11 14.53,11"/>
	<path class="st1" d="M6.53,15L5.46,15C5.21,15 5,14.78 5,14.53L5,13.46C5,13.21 5.21,13 5.46,13L6.53,13C6.79,13 7,13.21 7,13.46L7,14.53C7,14.78 6.79,15 6.53,15"/>
	<path class="st1" d="M10.53,15L9.46,15C9.21,15 9,14.78 9,14.53L9,13.46C9,13.21 9.21,13 9.46,13L10.53,13C10.79,13 11,13.21 11,13.46L11,14.53C11,14.78 10.79,15 10.53,15"/>
	<path class="st1" d="M14.53,15L13.46,15C13.21,15 13,14.78 13,14.53L13,13.46C13,13.21 13.21,13 13.46,13L14.53,13C14.79,13 15,13.21 15,13.46L15,14.53C15,14.78 14.79,15 14.53,15"/>
</svg>