<svg xmlns="http://www.w3.org/2000/svg" width="24" height="24" viewBox="0 0 24 24"><defs><linearGradient id="8sg7a" x1="0" x2="24" y1="-.01" y2="23.99" gradientUnits="userSpaceOnUse"><stop offset="0" stop-color="#009fc5"/><stop offset="1" stop-color="#3cecb0"/></linearGradient></defs><g><g><path fill="url(#8sg7a)" d="M12 23.988c-6.627 0-12-5.373-12-12s5.373-12 12-12 12 5.373 12 12-5.373 12-12 12zm0-21a9 9 0 0 0-9 9 9 9 0 0 0 9 9 9 9 0 0 0 9-9 9 9 0 0 0-9-9zm6 10.5h-6a1.498 1.498 0 0 1-1.5-1.484V5.973c0-.824.672-1.5 1.5-1.5s1.5.676 1.5 1.5v4.515H18a1.5 1.5 0 0 1 0 3z"/></g></g></svg>