<svg xmlns="http://www.w3.org/2000/svg" width="24" height="21" viewBox="0 0 24 21"><defs><linearGradient id="8a89a" x1="1" x2="23" y1="0" y2="21" gradientUnits="userSpaceOnUse"><stop offset="0" stop-color="#f33573"/><stop offset="1" stop-color="#ffc066"/></linearGradient></defs><g><g><path fill="url(#8a89a)" d="M20.988 20.996H3.01A3 3 0 0 1 0 18.011v-7.515c0-.16.025-.321.075-.473L2.84 1.728A2.617 2.617 0 0 1 5.265-.004h13.47a2.615 2.615 0 0 1 2.424 1.733l2.764 8.295c.05.15.076.312.076.472v7.515a3 3 0 0 1-3.011 2.985zm-2.568-18H5.58l-1.998 6h4.173c.183.003.36.039.53.105.05.023.101.048.15.075a1.497 1.497 0 0 1 .427.327c.082.095.153.198.21.312.027.044.05.09.075.137 0 .016.018.03.024.045a2.996 2.996 0 0 0 2.829 2 2.996 2.996 0 0 0 2.829-2c0-.015.018-.03.025-.045.023-.046.045-.093.076-.137a1.39 1.39 0 0 1 .635-.637l.15-.075c.168-.066.345-.102.529-.105h4.174zm2.58 9h-3.815a5.984 5.984 0 0 1-10.37 0H3v6.015c0-.015 0-.015.01-.015h17.98c.01 0 .01 0 .01.015z"/></g></g></svg>