<svg xmlns="http://www.w3.org/2000/svg" width="24" height="24" viewBox="0 0 24 24"><defs><linearGradient id="e5j3a" x1="0" x2="24" y1="0" y2="24" gradientUnits="userSpaceOnUse"><stop offset="0" stop-color="#7956ec"/><stop offset="1" stop-color="#2fb9f8"/></linearGradient></defs><g><g><path fill="url(#e5j3a)" d="M23.26 9.001h-6.805c-.825 0-1.025-.468-.425-1.065l2.31-2.3a9.045 9.045 0 0 0-6.394-2.635c-4.6 0-8.396 3.424-8.961 7.853 0 0-.174 1.147-1.48 1.147a1.504 1.504 0 0 1-1.468-1.83C.922 4.41 5.917 0 11.947 0c3.33 0 6.342 1.342 8.524 3.514l2.47-2.46C23.526.473 24 .675 24 1.485v6.78a.748.748 0 0 1-.74.736zM.74 15h6.805V15c.825 0 1.024.468.424 1.065l-2.31 2.3A9.031 9.031 0 0 0 12.054 21c4.602 0 8.397-3.424 8.964-7.852 0 0 .174-1.147 1.479-1.147a1.503 1.503 0 0 1 1.465 1.83C23.077 19.59 18.082 24 12.052 24c-3.33 0-6.342-1.343-8.523-3.515l-2.47 2.46C.474 23.529 0 23.326 0 22.515v-6.78C0 15.33.345 15 .74 15z"/></g></g></svg>