<svg width="21" height="20" fill="none" xmlns="http://www.w3.org/2000/svg"><path d="M20.483 8.403c0-.903-.55-1.68-1.333-2.011V3.309A2.462 2.462 0 0016.69.85H2.643s0 0 0 0a2.462 2.462 0 00-2.46 2.46v13.158a2.462 2.462 0 002.46 2.46H16.69a2.462 2.462 0 002.46-2.46v-3.082a2.185 2.185 0 001.333-2.011V8.403zm-2.826 8.065a.968.968 0 01-.967.966H2.643a.968.968 0 01-.967-.966V3.309c0-.533.434-.966.967-.966H16.69c.533 0 .967.433.967.966V6.22h-2.533a3.673 3.673 0 00-3.668 3.669 3.673 3.673 0 003.668 3.668h2.533v2.91zm1.334-5.093c0 .38-.31.69-.69.69h-3.177c-1.2 0-2.176-.977-2.176-2.176 0-1.2.977-2.176 2.176-2.176h3.177c.38 0 .69.31.69.69v2.972z" fill="#FFC700" stroke="#FFC700" stroke-width=".3"/></svg>